<?xml version="1.0" standalone="yes"?>
<svg xmlns="http://www.w3.org/2000/svg" width="139" height="173">
<path style="fill:#353a3d; stroke:none;" d="M0 0L0 7L20 8L20 7L13 5L13 1C10.6495 2.05153 8 3.534 8 0L0 0z"/>
<path style="fill:#6a959f; stroke:none;" d="M7 1L7 2L12 0L7 1z"/>
<path style="fill:#b29587; stroke:none;" d="M12 0L12 1L20 1L12 0z"/>
<path style="fill:#b5c1c1; stroke:none;" d="M16 2L16 3L34 3L34 0L16 2z"/>
<path style="fill:#b29587; stroke:none;" d="M34 0L34 3L35 3L34 0z"/>
<path style="fill:#353a3d; stroke:none;" d="M35 0L35 4L19 5L19 6L36 5L35 0z"/>
<path style="fill:#b5c1c1; stroke:none;" d="M36 0L36 3L63 3C61.7638 -2.76884 41.4253 0 36 0z"/>
<path style="fill:#956859; stroke:none;" d="M63.3333 0.666672L63.6667 1.33333L63.3333 0.666672z"/>
<path style="fill:#353a3d; stroke:none;" d="M64 0L64 6L53 4L53 5L57 5C58.3744 11.6135 68.4649 11.4692 74 12L74 11L71 11L68 5L66 0L64 0z"/>
<path style="fill:#b29587; stroke:none;" d="M66 0C69.1069 4.92989 75.7671 3.99944 81 4L81 3L68 0L66 0z"/>
<path style="fill:#b5c1c1; stroke:none;" d="M67 1L67 2L78 3C77.003 -1.65288 70.5675 -0.304077 67 1z"/>
<path style="fill:#b29587; stroke:none;" d="M78 0L79 1L78 0z"/>
<path style="fill:#956859; stroke:none;" d="M79 0L78 2L80 2L79 0z"/>
<path style="fill:#6a959f; stroke:none;" d="M80 0L81 4L85 4L85 2C89.5089 4.7639 92.2455 4.89529 95 0L88 2L89 0L80 0z"/>
<path style="fill:#b5c1c1; stroke:none;" d="M82 0L83 1L82 0z"/>
<path style="fill:#b29587; stroke:none;" d="M87 0L88 1L87 0z"/>
<path style="fill:#b5c1c1; stroke:none;" d="M89.3333 0.666672L89.6667 1.33333L89.3333 0.666672z"/>
<path style="fill:#353a3d; stroke:none;" d="M95 0C91.3392 5.27466 89.3629 3.3824 84 2C84 5.10202 80.6327 4 78 4L78 6L138 5L138 7L131 7L131 8L138 10L139 10L139 0L138 0C132.449 4.36821 123.711 3 117 3L117 0L102 2L101 2C99.4279 -0.74202 97.6088 0.159073 97 3L96 3L95 0z"/>
<path style="fill:#956859; stroke:none;" d="M96 0L96 3L97 3L96 0M101.333 0.666672L101.667 1.33333L101.333 0.666672z"/>
<path style="fill:#b29587; stroke:none;" d="M117.333 0.666672L117.667 1.33333L117.333 0.666672z"/>
<path style="fill:#956859; stroke:none;" d="M118 0L118 3L119 3L118 0z"/>
<path style="fill:#b29587; stroke:none;" d="M119 0L119 1L134 2L119 0z"/>
<path style="fill:#956859; stroke:none;" d="M132 0L132 1L138 2L138 0L132 0z"/>
<path style="fill:#353a3d; stroke:none;" d="M9 1L10 2L9 1z"/>
<path style="fill:#b5c1c1; stroke:none;" d="M13 1L13 3L15 3L15 1L13 1z"/>
<path style="fill:#956859; stroke:none;" d="M15 1L13 5L20 7L20 8L0 7L0 10C4.45966 9.99115 8.11862 9.17778 11 13L6 14L6 17L1 18L0 22L4 21L3 26L6 24L8 27L7 30L3 28L3 29L14 33L14 32L12 32L12 31L31 31L32 20L30 21L30 20L53 17L53 15L69 16L69 17L67 17L67 18L72 16L99 15L91 12L91 11L105 10L106 13L112 14L112 13L108 12L108 11L113 8L110 6L120 7L120 8L114 8L114 9L121 13L122 13L121 10L128 13L139 14L138 8L131 8L131 7L138 7L138 5L107 3.99614L95 6L98 6L98 7L88 9L87 9L82 9C79.1766 6.05893 73.6715 6.96564 70 8L67 6L67 7L74 11L74 12C68.4777 10.9565 59.2054 11.372 57 5L53 4L38 10L33 8L33 7L42 4L43 7L44 7L45 3L19 6L19 5L35 4L35 3L15 1z"/>
<path style="fill:#353a3d; stroke:none;" d="M88 1L89 2L88 1z"/>
<path style="fill:#b5c1c1; stroke:none;" d="M119.667 1.33333L120.333 1.66667L119.667 1.33333z"/>
<path style="fill:#956859; stroke:none;" d="M51.6667 2.33333L52.3333 2.66667L51.6667 2.33333z"/>
<path style="fill:#b29587; stroke:none;" d="M57 3L57 4L63 4L57 3z"/>
<path style="fill:#956859; stroke:none;" d="M66 2C68.3721 5.36838 75.0084 7.40715 78 4L66 2M107 2L108 3L107 2z"/>
<path style="fill:#6a959f; stroke:none;" d="M114 2L115 3L114 2M117 2L118 3L117 2z"/>
<path style="fill:#b29587; stroke:none;" d="M119 2L120 3L119 2z"/>
<path style="fill:#956859; stroke:none;" d="M120 2L120 3L133 3L120 2z"/>
<path style="fill:#b29587; stroke:none;" d="M45 3L45 4L51 4L51 5L44 7L43 7L33 7L33 8L38 10L52 6L45 3z"/>
<path style="fill:#956859; stroke:none;" d="M53 3L54 4L53 3M55 3L56 4L55 3M63 3L64 4L63 3z"/>
<path style="fill:#b29587; stroke:none;" d="M83 3L84 4L83 3z"/>
<path style="fill:#6a959f; stroke:none;" d="M14 4L14 5L19 5L14 4z"/>
<path style="fill:#353a3d; stroke:none;" d="M41 4L42 5L41 4M43 4L44 5L43 4M45 4L45 5L49 5L45 4z"/>
<path style="fill:#956859; stroke:none;" d="M49 4L50 5L49 4z"/>
<path style="fill:#353a3d; stroke:none;" d="M50 4L51 5L50 4z"/>
<path style="fill:#956859; stroke:none;" d="M57 4L58 5L57 4M60 4L60 5L64 6L64 5L60 4z"/>
<path style="fill:#353a3d; stroke:none;" d="M70 4L71 5L70 4M74.6667 4.33333L75.3333 4.66667L74.6667 4.33333z"/>
<path style="fill:#956859; stroke:none;" d="M92 4L93 5L92 4M2.66667 5.33333L3.33333 5.66667L2.66667 5.33333M6.66667 5.33333L7.33333 5.66667L6.66667 5.33333M9 5L9 6L12 6L9 5z"/>
<path style="fill:#b29587; stroke:none;" d="M43 5L44 6L43 5M53 5L54 6L53 5M66 5L66 6L82 9L87 9L88 9L98 7L66 5M99 5L98 9L99 9L106 8L105 10L108 10L109 5L99 5M110 6L113 8L108 11L108 12L112 13L112 14L106 13L105 10L91 11L91 12L99 15C93.361 14.2039 86.3484 15.1896 82 19L72 16L67 18L67 17L69 17L69 16L53 15L53 17C47.0829 16.0675 33.967 16.0256 30 21L32 20L32 21L32 24L33 24L33 21L34 21L32 25L32 26L37 27L37 28L34 27L32 29L32 30L39 30L43 28L43 29L40 29L40 30C49.0849 30 60.6503 31.646 67 24L66 21L75 22L76 25L83 23L87 27L93 26L93 25L89 25L91 22L86 19L96 24L96 23L93 20L95 22L112 23L115 23L117 20L118 21L117 24L129 23L129 22L119 22L119 21L126 22L125 20L126 20C130.881 20.8259 136.431 20.6596 139 16L136 16L139 15L139 14L128 13L121 10L122 13L121 13L114 9L114 8L120 8C116.918 5.32629 113.9 4.90834 110 6M31 6L31 8L33 6L31 6z"/>
<path style="fill:#956859; stroke:none;" d="M105 6L105 7L108 7L105 6z"/>
<path style="fill:#b29587; stroke:none;" d="M22 7L23 8L22 7z"/>
<path style="fill:#353a3d; stroke:none;" d="M70 7L71 8L70 7M128 7L129 8L128 7M51 8L51 9L58 11L51 8M0 10L0 21L1 21L1 18L6 17L6 14L11 13C8.54353 8.77139 4.41071 9.96689 0 10M42 9L43 10L42 9M76 9L76 10L80 12L80 11L76 9M81 9L82 10L81 9z"/>
<path style="fill:#b29587; stroke:none;" d="M86 9L87 10L86 9M88 10L88 11L93 10L88 10M120 9L121 10L120 9z"/>
<path style="fill:#353a3d; stroke:none;" d="M14 10L15 11L14 10M46 11L46 12L53 12L46 11z"/>
<path style="fill:#b29587; stroke:none;" d="M110 10L111 11L110 10z"/>
<path style="fill:#956859; stroke:none;" d="M6 11L8 13L8 11L6 11z"/>
<path style="fill:#353a3d; stroke:none;" d="M22 13L22 14L33 13L41 14L41 11L22 13M54 11L55 12L54 11M83.6667 11.3333L84.3333 11.6667L83.6667 11.3333z"/>
<path style="fill:#b29587; stroke:none;" d="M46.6667 12.3333L47.3333 12.6667L46.6667 12.3333z"/>
<path style="fill:#353a3d; stroke:none;" d="M63 12C63.6544 15.0539 65.0066 14.9358 68 15L63 12M76 12L73 13L73 14L78 12L76 12z"/>
<path style="fill:#956859; stroke:none;" d="M114 12L115 13L114 12z"/>
<path style="fill:#353a3d; stroke:none;" d="M16 13L14 14L14 15L16 13z"/>
<path style="fill:#b29587; stroke:none;" d="M55 13L56 14L55 13z"/>
<path style="fill:#353a3d; stroke:none;" d="M69 13L70 14L69 13M85 13L86 14L85 13M89 13L90 14L89 13z"/>
<path style="fill:#956859; stroke:none;" d="M100 13L105 15L105 14L100 13M118 13L119 14L118 13M126 13L124 14L124 15L126 13z"/>
<path style="fill:#353a3d; stroke:none;" d="M46 14L47 15L46 14z"/>
<path style="fill:#b29587; stroke:none;" d="M50.6667 14.3333L51.3333 14.6667L50.6667 14.3333M58 14L59 15L58 14z"/>
<path style="fill:#353a3d; stroke:none;" d="M61 14L62 15L61 14M71 14L72 15L71 14M78.6667 14.3333L79.3333 14.6667L78.6667 14.3333z"/>
<path style="fill:#956859; stroke:none;" d="M106 14L109 16L106 14M120 14L121 15L120 14M128 14L128 15L132 16L132 17L127 19L133 19L136 17L136 16L132 14L128 14M0 15L1 16L0 15z"/>
<path style="fill:#b29587; stroke:none;" d="M47 15L48 16L47 15M62 15L63 16L62 15z"/>
<path style="fill:#956859; stroke:none;" d="M105 20L106 20L112 16L113 16L117 18C114.121 14.2823 106.071 15.0036 105 20M118 15L119 16L118 15M136 15L136 16L139 16L136 15z"/>
<path style="fill:#b5c1c1; stroke:none;" d="M137 16L138 17L137 16z"/>
<path style="fill:#b29587; stroke:none;" d="M31 17L32 18L31 17z"/>
<path style="fill:#956859; stroke:none;" d="M59 17L60 18L59 17M76 17L79 20L76 17z"/>
<path style="fill:#b5c1c1; stroke:none;" d="M82 17L83 18L82 17z"/>
<path style="fill:#956859; stroke:none;" d="M86 17L84 20L86 17M100 17L101 18L100 17M118 17L118 18L121 18L118 17z"/>
<path style="fill:#b29587; stroke:none;" d="M28.3333 18.6667L28.6667 19.3333L28.3333 18.6667z"/>
<path style="fill:#b5c1c1; stroke:none;" d="M58 18L59 19L58 18z"/>
<path style="fill:#956859; stroke:none;" d="M82 18L83 19L82 18M89 18L89 19L94 19L89 18M97 18L98 19L97 18z"/>
<path style="fill:#b5c1c1; stroke:none;" d="M108 18L109 19L108 18M121 18L122 19L121 18z"/>
<path style="fill:#956859; stroke:none;" d="M123 18L124 19L123 18M138 18L125 20L126 22L119 21L119 22L129 22L129 23L117 24L118 21L117 20L115 23L112 23C111.362 19.1611 98.3642 21.5093 95 22L93 20L96 23L96 24L86 19L91 22L90 25L93 25L93 26L87 27L83 23L76 25L75 22L66 21L67 24L56 29L56 30L68.0394 28.3256L108 27C109.39 29.349 128.51 27.8408 130 25L131 25L139 28L137 25L138 18z"/>
<path style="fill:#353a3d; stroke:none;" d="M3 19L4 20L3 19z"/>
<path style="fill:#b29587; stroke:none;" d="M19 19L20 20L19 19z"/>
<path style="fill:#956859; stroke:none;" d="M35 19L36 20L35 19z"/>
<path style="fill:#b5c1c1; stroke:none;" d="M41 19L42 20L41 19z"/>
<path style="fill:#956859; stroke:none;" d="M69 19L68 21L69 19M110 19L111 20L110 19z"/>
<path style="fill:#353a3d; stroke:none;" d="M5 20L6 21L5 20z"/>
<path style="fill:#b29587; stroke:none;" d="M25 20L26 21L25 20z"/>
<path style="fill:#956859; stroke:none;" d="M47 20L48 21L47 20M49 20L50 21L49 20M64.6667 20.3333L65.3333 20.6667L64.6667 20.3333z"/>
<path style="fill:#b5c1c1; stroke:none;" d="M103 20L104 21L103 20z"/>
<path style="fill:#353a3d; stroke:none;" d="M0 33L12 33L12 32L3 29L3 28L7 30L8 27L6 24L3 26L4 21C-1.14846 23.0696 0 28.1789 0 33z"/>
<path style="fill:#b29587; stroke:none;" d="M23 21L24 22L23 21z"/>
<path style="fill:#956859; stroke:none;" d="M33 21L32 25L33 21M35 21L36 22L35 21M39 21L40 22L39 21M41 21L42 22L41 21z"/>
<path style="fill:#b5c1c1; stroke:none;" d="M48 21L49 22L48 21z"/>
<path style="fill:#956859; stroke:none;" d="M54 21L55 22L54 21M75 21L75 22L82 21L75 21z"/>
<path style="fill:#353a3d; stroke:none;" d="M31 22L31 31L12 31L12 32L35 31L35 30L32 31L31 22z"/>
<path style="fill:#956859; stroke:none;" d="M44 22L45 23L44 22z"/>
<path style="fill:#b5c1c1; stroke:none;" d="M49 22L50 23L49 22M54 22L55 23L54 22z"/>
<path style="fill:#956859; stroke:none;" d="M83 22L83 23L87 25L88 25L89 22L83 22z"/>
<path style="fill:#b29587; stroke:none;" d="M130.333 22.6667L130.667 23.3333L130.333 22.6667M133 22L134 23L133 22z"/>
<path style="fill:#b5c1c1; stroke:none;" d="M35 23L36 24L35 23z"/>
<path style="fill:#956859; stroke:none;" d="M53 23L54 24L53 23z"/>
<path style="fill:#b29587; stroke:none;" d="M97 23L98 25L94 25L94 26L103 25L97 23z"/>
<path style="fill:#956859; stroke:none;" d="M35 24L35 25L39 25L35 24z"/>
<path style="fill:#b5c1c1; stroke:none;" d="M44 24L42 25C44.0853 28.4009 46.0975 28.8731 50 29L44 24z"/>
<path style="fill:#956859; stroke:none;" d="M52 24L53 25L52 24M58 24L59 25L58 24z"/>
<path style="fill:#b29587; stroke:none;" d="M69 24L69 27L72 24L69 24z"/>
<path style="fill:#b5c1c1; stroke:none;" d="M89 24L90 25L89 24z"/>
<path style="fill:#b29587; stroke:none;" d="M110 24L110 25L114 25L110 24z"/>
<path style="fill:#353a3d; stroke:none;" d="M137.667 24.3333L138.333 24.6667L137.667 24.3333M12 25L13 26L12 25z"/>
<path style="fill:#956859; stroke:none;" d="M53 25L54 26L53 25z"/>
<path style="fill:#b29587; stroke:none;" d="M123 25L124 26L123 25M130.333 25.6667L130.667 26.3333L130.333 25.6667z"/>
<path style="fill:#353a3d; stroke:none;" d="M9.66667 26.3333L10.3333 26.6667L9.66667 26.3333z"/>
<path style="fill:#956859; stroke:none;" d="M32 26L32 29L34 27L37 28L32 26z"/>
<path style="fill:#b29587; stroke:none;" d="M44.6667 26.3333L45.3333 26.6667L44.6667 26.3333M74 26L75 27L74 26M82 27L82 28L86 27L82 27M98 27L98 28L106 28L98 27M121 26L122 27L121 26M127 26L128 27L127 26z"/>
<path style="fill:#353a3d; stroke:none;" d="M116 27L116 28L136 28L136 29L0 34L0 41C11.9816 38.1488 20.5503 45.6206 31 50L31 51L26 50L26 51L48 49L46 46L56 44L56 43L45 46L47 49L30 49L30 47L33 46L33 45L23 43C59.8228 33.1348 100.701 34 139 34L139 28L116 27M138 26L139 27L138 26z"/>
<path style="fill:#956859; stroke:none;" d="M1 27L2 28L1 27z"/>
<path style="fill:#353a3d; stroke:none;" d="M14 27L15 28L14 27z"/>
<path style="fill:#b29587; stroke:none;" d="M32 27L33 28L32 27M90 27L90 28L93 28L90 27M94 27L95 28L94 27M107 27L108 28L107 27z"/>
<path style="fill:#b5c1c1; stroke:none;" d="M39 28L39 29L43 29L39 28z"/>
<path style="fill:#956859; stroke:none;" d="M55 28L56 29L55 28z"/>
<path style="fill:#b29587; stroke:none;" d="M64 28L64 29L70 29L64 28M71 28L71 29L76 29L71 28M77 28L77 29L81 29L77 28z"/>
<path style="fill:#353a3d; stroke:none;" d="M87 28L87 29L108 29L87 28z"/>
<path style="fill:#6a959f; stroke:none;" d="M106 29L106 30L116 29L106 29z"/>
<path style="fill:#b29587; stroke:none;" d="M116 28L116 29L122 29L116 28z"/>
<path style="fill:#b5c1c1; stroke:none;" d="M122 28L122 29L129 29L122 28z"/>
<path style="fill:#b29587; stroke:none;" d="M129 28L130 29L129 28z"/>
<path style="fill:#6a959f; stroke:none;" d="M130 28L130 29L136 29L130 28z"/>
<path style="fill:#353a3d; stroke:none;" d="M16 29L17 30L16 29M20 29L21 30L20 29z"/>
<path style="fill:#956859; stroke:none;" d="M34 32L37 29L34 32M39 29L40 30L39 29z"/>
<path style="fill:#353a3d; stroke:none;" d="M64 29L64 30L82 30L64 29z"/>
<path style="fill:#6a959f; stroke:none;" d="M84 30L84 31L90 30L84 30z"/>
<path style="fill:#b29587; stroke:none;" d="M90 29L91 30L90 29z"/>
<path style="fill:#b5c1c1; stroke:none;" d="M91 29L91 30L106 30L91 29z"/>
<path style="fill:#956859; stroke:none;" d="M113 29L114 30L113 29M2 30L4 32L4 30L2 30z"/>
<path style="fill:#b29587; stroke:none;" d="M22 30L23 31L22 30z"/>
<path style="fill:#b5c1c1; stroke:none;" d="M23 30L24 31L23 30z"/>
<path style="fill:#b29587; stroke:none;" d="M24 30L25 31L24 30z"/>
<path style="fill:#b5c1c1; stroke:none;" d="M25 30L26 31L25 30z"/>
<path style="fill:#b29587; stroke:none;" d="M26 30L26 31L29 31L26 30z"/>
<path style="fill:#956859; stroke:none;" d="M32 30L33 31L32 30z"/>
<path style="fill:#353a3d; stroke:none;" d="M37 30L37 31L57 31L37 30z"/>
<path style="fill:#6a959f; stroke:none;" d="M57 31L57 32L65 30L57 31z"/>
<path style="fill:#b29587; stroke:none;" d="M63 30L64 31L63 30z"/>
<path style="fill:#b5c1c1; stroke:none;" d="M65 30L65 31L82 31L65 30z"/>
<path style="fill:#b29587; stroke:none;" d="M82.6667 30.3333L83.3333 30.6667L82.6667 30.3333z"/>
<path style="fill:#956859; stroke:none;" d="M88.6667 30.3333L89.3333 30.6667L88.6667 30.3333z"/>
<path style="fill:#6a959f; stroke:none;" d="M31 32L31 33L42 33L31 32z"/>
<path style="fill:#b5c1c1; stroke:none;" d="M41 31L41 32L57 32L41 31z"/>
<path style="fill:#6a959f; stroke:none;" d="M14 32L14 33L23 33L14 32z"/>
<path style="fill:#b29587; stroke:none;" d="M23 32L24 33L23 32z"/>
<path style="fill:#b5c1c1; stroke:none;" d="M24 32L24 33L31 33L24 32z"/>
<path style="fill:#6a959f; stroke:none;" d="M0 33L0 34L13 34L0 33z"/>
<path style="fill:#956859; stroke:none;" d="M95 35L95 36L98 38L94 36L92 36L92 38L88 37L88 41L95 43L95 40L106 41L110 45L111 45L106 40L109 41L110 41L114 38C118.095 45.3881 125.232 42.3516 132 43L131 40L134 40L134 41L132 47L136 47L130 49L127 47L127 48L127 51L128 53L126 55L129 51L133 52L136 56L136 57L132 56L132 61L139 58L138 52L136 54L139 51L139 50L136 47L139 46L137 42L139 34L95 35M67 35L68 36L67 35z"/>
<path style="fill:#b5c1c1; stroke:none;" d="M60 46L47 46L47 48C51.7805 49.6996 54.5551 49.4771 59 47L55 51L55 52L65 56C68.1913 64.8709 77.308 62.0565 82 56L77 56L77 55L83 55C83.6764 50.3113 85.3122 45.5356 82.8349 41.0432C76.2665 29.1322 63.2724 36.4146 60 46z"/>
<path style="fill:#6a959f; stroke:none;" d="M76 35L77 36L76 35z"/>
<path style="fill:#b29587; stroke:none;" d="M106 35L107 36L106 35M111 35L112 36L111 35z"/>
<path style="fill:#353a3d; stroke:none;" d="M123 35L124 36L123 35z"/>
<path style="fill:#b29587; stroke:none;" d="M129 35L130 36L129 35z"/>
<path style="fill:#353a3d; stroke:none;" d="M134.667 35.3333L135.333 35.6667L134.667 35.3333z"/>
<path style="fill:#956859; stroke:none;" d="M65 36L66 37L65 36z"/>
<path style="fill:#b29587; stroke:none;" d="M78 36L79 37L78 36z"/>
<path style="fill:#956859; stroke:none;" d="M79 36L87 42L87 41L84 41L84 36L83 36L84 38L83 38L79 36z"/>
<path style="fill:#b29587; stroke:none;" d="M80 36L80 37L84 38L84 37L80 36M84 36L87 41L87 42L84 42L84 43L88 43C87.8991 46.3602 87.3683 47.4329 84 48L83 53L84 53L85 50C91.9385 51.5791 89.4239 45.5564 93 42L95 46L93 49L95 54L92 53L93 57C97.6971 55.9161 100.056 56.0926 104 59L104 56L108 57L105 61L102 60L102 70L102 71L105 70L103 72L105 75C102.626 78.2233 104.049 79.7761 107 82L103 81C103.183 83.939 102.889 85.5035 106 86L106 87L104 94L107 96L110 95L108 98L107 98L104 95C104.139 96.9317 104.881 101.816 107 99L108 99L113 105L111 102L124 99C123.972 103.834 131.004 100.957 134 100L134 99L130 99L132 96L127 95L134 92L139 94L139 93L139 92L135 92L139 88L134 84L135 84L139 86L139 85L136 85L139 82L139 81L136 80L136 79L139 80L135 75L139 70L136 71L139 64L136 65L137 68L132 70L135 65L133 66L133 65L137 64L137 63L135 61L138 57L132 61L132 56L136 57L136 56L133 52L129 51L126 55L128 53L127 51C129.006 49.8734 129.006 49.1266 127 48L127 47L130 49L136 47L132 47L134 40L131 40L132 43C124.724 41.6978 119.601 44.69 114 38L110 41L109 41L106 40L111 45L110 45L106 41L95 40L95 43L88 41L88 37L92 38L84 36M94 38L98 38C96.4444 36.1871 95.5556 36.1871 94 38M100 36L103 40L100 36M134 36L135 37L134 36M138 36L139 37L138 36z"/>
<path style="fill:#956859; stroke:none;" d="M50 40L44 40L44 41L52 42L55 42L56 42L57 42L57 40L62 41L64 37C60.104 37.7792 50.9094 35.4532 50 40z"/>
<path style="fill:#b29587; stroke:none;" d="M62 37L63 38L62 37M104 37L104 38L108 38L104 37M110.667 37.3333L111.333 37.6667L110.667 37.3333M118 37L119 38L118 37z"/>
<path style="fill:#956859; stroke:none;" d="M31 38L32 39L31 38z"/>
<path style="fill:#6a959f; stroke:none;" d="M33 38L34 39L33 38z"/>
<path style="fill:#956859; stroke:none;" d="M35.6667 38.3333L36.3333 38.6667L35.6667 38.3333z"/>
<path style="fill:#6a959f; stroke:none;" d="M37 38L38 39L37 38z"/>
<path style="fill:#956859; stroke:none;" d="M38 38L39 39L38 38z"/>
<path style="fill:#b29587; stroke:none;" d="M39 38L39 39L42 39L39 38z"/>
<path style="fill:#b5c1c1; stroke:none;" d="M34 39L34 40L46 40L34 39z"/>
<path style="fill:#b29587; stroke:none;" d="M44 38L45 39L44 38z"/>
<path style="fill:#956859; stroke:none;" d="M45 38L46 39L45 38z"/>
<path style="fill:#b29587; stroke:none;" d="M46 40L50 40C48.4444 38.1871 47.5556 38.1871 46 40M51 38L52 39L51 38M54 38L54 39L61 40L54 38M115 38L122 40L122 39L115 38z"/>
<path style="fill:#956859; stroke:none;" d="M14.6667 39.3333L15.3333 39.6667L14.6667 39.3333M19 39L20 40L19 39z"/>
<path style="fill:#b29587; stroke:none;" d="M18 40L18 41L26 41L18 40z"/>
<path style="fill:#b5c1c1; stroke:none;" d="M23 39L23 40L29 40L23 39z"/>
<path style="fill:#b29587; stroke:none;" d="M29.6667 39.3333L30.3333 39.6667L29.6667 39.3333z"/>
<path style="fill:#956859; stroke:none;" d="M27 41L27 42L35 42L27 41z"/>
<path style="fill:#b29587; stroke:none;" d="M62 39L63 40L62 39M82 39L83 40L82 39M91 39L91 40L95 42L95 39L91 39M105 39L106 40L105 39z"/>
<path style="fill:#353a3d; stroke:none;" d="M134 39L135 40L134 39z"/>
<path style="fill:#956859; stroke:none;" d="M0 41L0 43L1 44L5 43L4 45L5 45L5 40L0 41z"/>
<path style="fill:#b29587; stroke:none;" d="M5 42L10 41L5 42z"/>
<path style="fill:#956859; stroke:none;" d="M10 40L14 42L14 41L10 40M16.6667 40.3333L17.3333 40.6667L16.6667 40.3333M26 40L27 41L26 40z"/>
<path style="fill:#b29587; stroke:none;" d="M32 40L33 41L32 40M43 40L45 42L43 40M47 40L48 41L47 40M52 40L58 46L62 41L57 42L56 42L55 42L52 40z"/>
<path style="fill:#956859; stroke:none;" d="M112 40L113 41L112 40z"/>
<path style="fill:#b29587; stroke:none;" d="M123 40L124 41L123 40M126 40L127 41L126 40M129 40L128 42L129 40M135 40L134 44L135 40M138 40L139 41L138 40z"/>
<path style="fill:#956859; stroke:none;" d="M7.66667 41.3333L8.33333 41.6667L7.66667 41.3333z"/>
<path style="fill:#353a3d; stroke:none;" d="M9 41L10 42L9 41z"/>
<path style="fill:#956859; stroke:none;" d="M19 41L20 42L19 41z"/>
<path style="fill:#353a3d; stroke:none;" d="M32 41L32 42L37 43L37 42L32 41z"/>
<path style="fill:#b29587; stroke:none;" d="M36 41L37 42L36 41M38 41L36 45L33 44L33 45L39 45L38 41M40 41L41 42L40 41z"/>
<path style="fill:#353a3d; stroke:none;" d="M38 43L38 44L44 42L38 43z"/>
<path style="fill:#b5c1c1; stroke:none;" d="M40 43L40 44L54 43L40 43z"/>
<path style="fill:#b29587; stroke:none;" d="M49.6667 41.3333L50.3333 41.6667L49.6667 41.3333M83 41L84 42L83 41z"/>
<path style="fill:#956859; stroke:none;" d="M98 41L96 44L98 41z"/>
<path style="fill:#353a3d; stroke:none;" d="M5 42L5 43L8 43L5 42z"/>
<path style="fill:#b29587; stroke:none;" d="M5 44L5 46L17 45C14.2301 40.725 9.04368 42.0603 5 44z"/>
<path style="fill:#b5c1c1; stroke:none;" d="M12 42L13 43L12 42z"/>
<path style="fill:#956859; stroke:none;" d="M21 42L22 43L21 42z"/>
<path style="fill:#b29587; stroke:none;" d="M25.3333 42.6667L25.6667 43.3333L25.3333 42.6667z"/>
<path style="fill:#b5c1c1; stroke:none;" d="M24 43C27.0085 47.2404 31.6594 44.9917 36 44L24 43z"/>
<path style="fill:#b29587; stroke:none;" d="M33 42L34 43L33 42z"/>
<path style="fill:#956859; stroke:none;" d="M37 42L38 43L37 42M41 42L42 43L41 42M58 42L59 43L58 42z"/>
<path style="fill:#353a3d; stroke:none;" d="M91 42L91 55L92 55L93 42L91 42z"/>
<path style="fill:#b29587; stroke:none;" d="M123 42L124 43L123 42M125 42L126 43L125 42M137.667 42.3333L138.333 42.6667L137.667 42.3333z"/>
<path style="fill:#353a3d; stroke:none;" d="M0 43L10 52L0 51L0 52L25 50L25 49C20.5017 49.9399 15.7633 52.7077 13 48L17 47L17 46C12.6449 46.2202 5.88396 49.1111 5 43L0 43z"/>
<path style="fill:#956859; stroke:none;" d="M17 43L17 44L24 47L17 43z"/>
<path style="fill:#b29587; stroke:none;" d="M23 43L24 44L23 43z"/>
<path style="fill:#956859; stroke:none;" d="M39.3333 43.6667L39.6667 44.3333L39.3333 43.6667z"/>
<path style="fill:#b29587; stroke:none;" d="M49 43L50 44L49 43z"/>
<path style="fill:#956859; stroke:none;" d="M56.3333 43.6667L56.6667 44.3333L56.3333 43.6667M84 43L85 49L88 43L84 43M92 43L93 54L95 46L95 45L92 43M99 43L101 45L99 43M102 43L103 44L102 43M113 43L114 44L113 43M115.667 43.3333L116.333 43.6667L115.667 43.3333z"/>
<path style="fill:#b5c1c1; stroke:none;" d="M127 43L128 44L127 43M17 44L18 45L17 44z"/>
<path style="fill:#b29587; stroke:none;" d="M18 44L20 47L18 44M28 44L29 45L28 44z"/>
<path style="fill:#956859; stroke:none;" d="M35 44L36 45L35 44z"/>
<path style="fill:#353a3d; stroke:none;" d="M40 44L41 45L40 44z"/>
<path style="fill:#956859; stroke:none;" d="M41 44L44 47L44 48L41 48L41 49L46 48L45 45L41 44z"/>
<path style="fill:#b29587; stroke:none;" d="M42 44L43 45L42 44M47 44L48 45L47 44M50 44L51 45L50 44M55 44L56 45L55 44z"/>
<path style="fill:#353a3d; stroke:none;" d="M57 44L58 45L57 44z"/>
<path style="fill:#956859; stroke:none;" d="M58 44L59 45L58 44M60 44L61 45L60 44z"/>
<path style="fill:#b29587; stroke:none;" d="M84 44L84 47L85 47L84 44z"/>
<path style="fill:#956859; stroke:none;" d="M90 44L91 45L90 44M104 44C104.194 47.9141 106.317 48.5803 110 49L110 48L104 44M107.667 44.3333L108.333 44.6667L107.667 44.3333z"/>
<path style="fill:#b5c1c1; stroke:none;" d="M113 44L114 45L113 44M118 44L119 45L118 44z"/>
<path style="fill:#b29587; stroke:none;" d="M136 44L137 45L136 44M0 45L0 51L6 51L0 45z"/>
<path style="fill:#956859; stroke:none;" d="M14 45L14 46L19 47L14 45z"/>
<path style="fill:#b29587; stroke:none;" d="M25 45L26 46L25 45M30 45L31 46L30 45z"/>
<path style="fill:#956859; stroke:none;" d="M33 45L34 46L33 45z"/>
<path style="fill:#b5c1c1; stroke:none;" d="M31 49L44 48C39.8 45.0629 34.2006 44.5451 31 49z"/>
<path style="fill:#b29587; stroke:none;" d="M40 45L41 46L40 45z"/>
<path style="fill:#353a3d; stroke:none;" d="M42.6667 45.3333L43.3333 45.6667L42.6667 45.3333z"/>
<path style="fill:#b29587; stroke:none;" d="M45 45L46 46L45 45z"/>
<path style="fill:#956859; stroke:none;" d="M89 45L90 46L89 45z"/>
<path style="fill:#b5c1c1; stroke:none;" d="M104 45L105 46L104 45M108 45L108 47L110 47L108 45M111 45L114 47L111 45z"/>
<path style="fill:#956859; stroke:none;" d="M118 45L119 46L118 45M121 45L123 50L124 50L125 50L121 45M124 45L124 46L127 46L124 45M128 45L129 46L128 45z"/>
<path style="fill:#b29587; stroke:none;" d="M138 45L139 46L138 45z"/>
<path style="fill:#956859; stroke:none;" d="M5 46L6 47L5 46M11 46L12 47L11 46z"/>
<path style="fill:#b5c1c1; stroke:none;" d="M16 47L16 48L29 50L16 47z"/>
<path style="fill:#b29587; stroke:none;" d="M21.6667 46.3333L22.3333 46.6667L21.6667 46.3333M27.6667 46.3333L28.3333 46.6667L27.6667 46.3333z"/>
<path style="fill:#956859; stroke:none;" d="M31 46L32 47L31 46z"/>
<path style="fill:#b29587; stroke:none;" d="M41 46L42 47L41 46z"/>
<path style="fill:#956859; stroke:none;" d="M46 46L47 47L46 46M95 46L96 47L95 46M98 46L99 47L98 46M116 46L117 47L116 46z"/>
<path style="fill:#b5c1c1; stroke:none;" d="M117 46L118 47L117 46z"/>
<path style="fill:#956859; stroke:none;" d="M0 47L1 48L0 47M3 47L4 48L3 47M7 47L8 48L7 47M9 47L10 48L9 47z"/>
<path style="fill:#b29587; stroke:none;" d="M13 51L14 52L21 48C17.2736 48.0215 14.9952 47.5874 13 51z"/>
<path style="fill:#956859; stroke:none;" d="M25 47L26 48L25 47z"/>
<path style="fill:#b29587; stroke:none;" d="M30 47L30 49L32 47L30 47M58 47L59 48L58 47z"/>
<path style="fill:#956859; stroke:none;" d="M89 47L87 50L89 47z"/>
<path style="fill:#b5c1c1; stroke:none;" d="M93 47L94 48L93 47z"/>
<path style="fill:#956859; stroke:none;" d="M100 47L101 48L100 47z"/>
<path style="fill:#b29587; stroke:none;" d="M136 47L139 50L139 47L136 47z"/>
<path style="fill:#956859; stroke:none;" d="M4.66667 48.3333L5.33333 48.6667L4.66667 48.3333M13 48L14 49L13 48z"/>
<path style="fill:#b29587; stroke:none;" d="M22 48L23 49L22 48z"/>
<path style="fill:#956859; stroke:none;" d="M27 48L28 49L27 48z"/>
<path style="fill:#b29587; stroke:none;" d="M40 48L41 49L40 48M44 48L45 49L44 48z"/>
<path style="fill:#b5c1c1; stroke:none;" d="M45 48L46 49L45 48z"/>
<path style="fill:#b29587; stroke:none;" d="M46 48L47 49L46 48z"/>
<path style="fill:#956859; stroke:none;" d="M48 48C48.513 50.4751 48.6038 50.5746 51 50L51 49L48 48M56 48L57 49L56 48z"/>
<path style="fill:#353a3d; stroke:none;" d="M57 48L50 50L50 51L58 49L57 48z"/>
<path style="fill:#956859; stroke:none;" d="M58 48L59 49L58 48M95 48L96 49L95 48M112 48L113 49L112 48z"/>
<path style="fill:#b5c1c1; stroke:none;" d="M115 48L116 49L115 48z"/>
<path style="fill:#956859; stroke:none;" d="M138 48L139 49L138 48M6 49L7 50L6 49M8.33333 49.6667L8.66667 50.3333L8.33333 49.6667M10 49L12 52L10 49M21.6667 49.3333L22.3333 49.6667L21.6667 49.3333M23 50L23 51L27 50L23 50M29 49L30 50L29 49M31 49L32 50L31 49z"/>
<path style="fill:#b29587; stroke:none;" d="M37 49L38 50L37 49M47.3333 49.6667L47.6667 50.3333L47.3333 49.6667z"/>
<path style="fill:#353a3d; stroke:none;" d="M49 49L50 50L49 49z"/>
<path style="fill:#956859; stroke:none;" d="M54 49L55 50L54 49z"/>
<path style="fill:#b29587; stroke:none;" d="M57 49L58 50L57 49z"/>
<path style="fill:#b5c1c1; stroke:none;" d="M113.667 49.3333L114.333 49.6667L113.667 49.3333z"/>
<path style="fill:#956859; stroke:none;" d="M126 49L127 50L126 49z"/>
<path style="fill:#b29587; stroke:none;" d="M132 49L132 50L136 51L132 49z"/>
<path style="fill:#956859; stroke:none;" d="M2.66667 50.3333L3.33333 50.6667L2.66667 50.3333z"/>
<path style="fill:#b5c1c1; stroke:none;" d="M6 50L7 51L6 50z"/>
<path style="fill:#b29587; stroke:none;" d="M7 50L8 51L7 50M29.6667 50.3333L30.3333 50.6667L29.6667 50.3333M33 50L34 51L33 50M35 50L36 51L35 50z"/>
<path style="fill:#956859; stroke:none;" d="M39 50L40 51L39 50z"/>
<path style="fill:#b5c1c1; stroke:none;" d="M38 51L37 54L52 53C48.2958 48.0611 40.2832 51.5708 38 51z"/>
<path style="fill:#b29587; stroke:none;" d="M55 50L56 51L55 50z"/>
<path style="fill:#956859; stroke:none;" d="M85 50L84 58L79 60C85.1236 59.5039 97.3392 55.3151 102 60L103 60L92 55L91 55L84 56L88 52L87 54L91 50L85 50z"/>
<path style="fill:#b29587; stroke:none;" d="M93 50L94 51L93 50z"/>
<path style="fill:#956859; stroke:none;" d="M101 50L102 51L101 50z"/>
<path style="fill:#b5c1c1; stroke:none;" d="M105 50L106 51L105 50z"/>
<path style="fill:#956859; stroke:none;" d="M106 50L107 51L106 50M108 50L108 55L109 55L108 50z"/>
<path style="fill:#b29587; stroke:none;" d="M8.66667 51.3333L9.33333 51.6667L8.66667 51.3333z"/>
<path style="fill:#956859; stroke:none;" d="M16 51L17 52L16 51M19 51L20 52L19 51z"/>
<path style="fill:#b5c1c1; stroke:none;" d="M20 51L21 52L20 51z"/>
<path style="fill:#b29587; stroke:none;" d="M17 53L18 56L28 54C24.3829 51.4371 21.0712 51.4596 17 53z"/>
<path style="fill:#b5c1c1; stroke:none;" d="M22 51L22 52L33 54L22 51z"/>
<path style="fill:#b29587; stroke:none;" d="M28 51L29 52L28 51z"/>
<path style="fill:#956859; stroke:none;" d="M31 51L31 52L38 57L33 58L34 61L38 59L26 61L25 61L24 59L23 59L21 61L19 60L15 56L15 55L18 56L17 53L10 52L14 54L13 57C15.6149 59.1212 13.9007 60.6265 12 63L13 60L0 62L0 87L8 86L8 87L0 88L0 100L3 101L3 102L0 102L2 120L2 116L9 114L7 118L13 118L10 116L12 112L13 112L14 118L15 118L16 115L21 116L20 113L23 114L20 85L16 87L19 63C27.9361 67.2052 41.3831 63.8739 51 62.9167C52.9388 62.7237 60.0523 63.0526 61.1667 61.5833C62.0723 60.3892 59.5415 59.3544 59 59L64 60L63 57L58 56L59 59L53 60L53 59L57 58L57 57L41 55L40 55L39 57L39 54L31 51z"/>
<path style="fill:#6a959f; stroke:none;" d="M37 51L38 52L37 51z"/>
<path style="fill:#b29587; stroke:none;" d="M39 51L40 52L39 51M50 51L51 52L50 51z"/>
<path style="fill:#956859; stroke:none;" d="M51 51L51 52L52 54L55 51L51 51z"/>
<path style="fill:#b29587; stroke:none;" d="M56 51L53 53L53 54L56 51z"/>
<path style="fill:#956859; stroke:none;" d="M99 51L100 52L99 51M105 51L106 52L105 51z"/>
<path style="fill:#b5c1c1; stroke:none;" d="M113 51L114 52L113 51z"/>
<path style="fill:#956859; stroke:none;" d="M115 51L116 52L115 51M124 51L125 52L124 51z"/>
<path style="fill:#b29587; stroke:none;" d="M136 54L139 53C137.524 50.4936 135.987 51.398 136 54z"/>
<path style="fill:#956859; stroke:none;" d="M0 52L0 57L5 56L5 55L0 52z"/>
<path style="fill:#b29587; stroke:none;" d="M1 52L12 56C9.43039 52.2493 5.29049 52.0914 1 52z"/>
<path style="fill:#956859; stroke:none;" d="M7 52L8 53L7 52M17 52L18 53L17 52z"/>
<path style="fill:#b29587; stroke:none;" d="M31 52L32 53L31 52M36.6667 52.3333L37.3333 52.6667L36.6667 52.3333M52 52L53 53L52 52z"/>
<path style="fill:#353a3d; stroke:none;" d="M55 52L56 53L55 52z"/>
<path style="fill:#b29587; stroke:none;" d="M84 55L91 56L91 52L87 54L88 52L84 55z"/>
<path style="fill:#956859; stroke:none;" d="M97 52L98 53L97 52z"/>
<path style="fill:#b5c1c1; stroke:none;" d="M109 52L110 53L109 52z"/>
<path style="fill:#956859; stroke:none;" d="M110 52L111 53L110 52M112 52L112 53L115 53L115 52L112 52z"/>
<path style="fill:#b29587; stroke:none;" d="M113 52L114 53L113 52z"/>
<path style="fill:#956859; stroke:none;" d="M116.667 52.3333L117.333 52.6667L116.667 52.3333z"/>
<path style="fill:#b5c1c1; stroke:none;" d="M125 52L126 53L125 52M21 53L22 54L21 53z"/>
<path style="fill:#b29587; stroke:none;" d="M33 53L36 55L36 54L33 53z"/>
<path style="fill:#353a3d; stroke:none;" d="M36 53L37 54L36 53z"/>
<path style="fill:#b29587; stroke:none;" d="M48 53L49 54L48 53z"/>
<path style="fill:#956859; stroke:none;" d="M49 53L50 54L49 53z"/>
<path style="fill:#353a3d; stroke:none;" d="M43 56L43 57L58 57L57 53L43 56z"/>
<path style="fill:#956859; stroke:none;" d="M57 53L56 55L58 55L57 53M101 53L103 55L101 53M105.333 53.6667L105.667 54.3333L105.333 53.6667z"/>
<path style="fill:#b29587; stroke:none;" d="M134 53L136 55L134 53M0 54L1 55L0 54z"/>
<path style="fill:#b5c1c1; stroke:none;" d="M9 54L10 55L9 54z"/>
<path style="fill:#353a3d; stroke:none;" d="M13 54L14 55L13 54z"/>
<path style="fill:#b5c1c1; stroke:none;" d="M25 54L26 55L25 54z"/>
<path style="fill:#956859; stroke:none;" d="M27 54L28 55L27 54z"/>
<path style="fill:#353a3d; stroke:none;" d="M15 55L15 56L22 61L33 60L38 57L15 55M37 54L38 55L37 54z"/>
<path style="fill:#b29587; stroke:none;" d="M40 54L41 55L40 54z"/>
<path style="fill:#956859; stroke:none;" d="M46 54L47 55L46 54z"/>
<path style="fill:#b29587; stroke:none;" d="M65 54L66 55L65 54M70 54L70 55L73 55L70 54z"/>
<path style="fill:#6a959f; stroke:none;" d="M78 54L79 55L78 54z"/>
<path style="fill:#353a3d; stroke:none;" d="M78 57L81 54L78 57z"/>
<path style="fill:#6a959f; stroke:none;" d="M81.3333 54.6667L81.6667 55.3333L81.3333 54.6667z"/>
<path style="fill:#956859; stroke:none;" d="M98 54L99 55L98 54z"/>
<path style="fill:#b5c1c1; stroke:none;" d="M104 54L105 55L104 54z"/>
<path style="fill:#956859; stroke:none;" d="M113 56L116 55L113 56M130 54L129 56L130 54z"/>
<path style="fill:#b29587; stroke:none;" d="M1 55L2 56L1 55M3 55L4 56L3 55z"/>
<path style="fill:#353a3d; stroke:none;" d="M1 63L13 60L12 63L16 58C10.3877 55.0582 -1.68824 53.0296 1 63z"/>
<path style="fill:#956859; stroke:none;" d="M10 55L11 56L10 55z"/>
<path style="fill:#b5c1c1; stroke:none;" d="M12 55L13 56L12 55z"/>
<path style="fill:#b29587; stroke:none;" d="M13 55L14 56L13 55z"/>
<path style="fill:#956859; stroke:none;" d="M19 55L22 58L19 55z"/>
<path style="fill:#353a3d; stroke:none;" d="M38.6667 55.3333L39.3333 55.6667L38.6667 55.3333z"/>
<path style="fill:#b29587; stroke:none;" d="M41.6667 55.3333L42.3333 55.6667L41.6667 55.3333z"/>
<path style="fill:#956859; stroke:none;" d="M44 55L45 56L44 55z"/>
<path style="fill:#b29587; stroke:none;" d="M58 55L59 56L58 55z"/>
<path style="fill:#956859; stroke:none;" d="M68 55L69 56L68 55z"/>
<path style="fill:#353a3d; stroke:none;" d="M68 56L68 57L72 55L68 56z"/>
<path style="fill:#b29587; stroke:none;" d="M77 55L78 56L77 55M82 55L84 58L82 55z"/>
<path style="fill:#353a3d; stroke:none;" d="M84 55L85 56L84 55z"/>
<path style="fill:#b5c1c1; stroke:none;" d="M97 55L98 56L97 55M114 55L115 56L114 55z"/>
<path style="fill:#956859; stroke:none;" d="M118 55L119 56L118 55z"/>
<path style="fill:#b29587; stroke:none;" d="M39 56L40 57L39 56z"/>
<path style="fill:#353a3d; stroke:none;" d="M41 56L42 57L41 56z"/>
<path style="fill:#b29587; stroke:none;" d="M59.6667 56.3333L60.3333 56.6667L59.6667 56.3333M64 56L66 59L64 56z"/>
<path style="fill:#6a959f; stroke:none;" d="M79 56L80 57L79 56z"/>
<path style="fill:#b29587; stroke:none;" d="M85 56L86 57L85 56z"/>
<path style="fill:#b5c1c1; stroke:none;" d="M87 56L87 57L91 57L87 56M92 56L93 57L92 56z"/>
<path style="fill:#353a3d; stroke:none;" d="M97 56L98 57L97 56z"/>
<path style="fill:#956859; stroke:none;" d="M104 56L104 57L106 58L104 60L108 57L104 56M122 56L122 57L129 58L129 57L122 56z"/>
<path style="fill:#b29587; stroke:none;" d="M138 56L139 57L138 56M15 57L16 58L15 57z"/>
<path style="fill:#353a3d; stroke:none;" d="M42 57L43 58L42 57z"/>
<path style="fill:#b29587; stroke:none;" d="M53 59L53 60L59 57L53 59z"/>
<path style="fill:#353a3d; stroke:none;" d="M61 57L62 58L61 57z"/>
<path style="fill:#6a959f; stroke:none;" d="M68 57L68 58L71 58L68 57z"/>
<path style="fill:#b29587; stroke:none;" d="M99 57L100 58L99 57z"/>
<path style="fill:#b5c1c1; stroke:none;" d="M102 57L103 58L102 57M105 57L106 58L105 57z"/>
<path style="fill:#956859; stroke:none;" d="M130 57L131 58L130 57z"/>
<path style="fill:#353a3d; stroke:none;" d="M38 58L39 59L38 58z"/>
<path style="fill:#b29587; stroke:none;" d="M42 58L39 60C42.2572 62.0267 47.3857 62.0072 50 59L42 58M52 58L51 60L52 58z"/>
<path style="fill:#353a3d; stroke:none;" d="M60 58L61 59L60 58z"/>
<path style="fill:#b29587; stroke:none;" d="M76 58L77 59L76 58M87.6667 58.3333L88.3333 58.6667L87.6667 58.3333z"/>
<path style="fill:#353a3d; stroke:none;" d="M64 59L68 62L68 63L63 64C60.0291 60.5913 54.0421 62.4402 50 62.8302C39.8526 63.8093 28.829 66.1158 19 63L19.9144 82L23 125L0 128L0 139L24 134L25 146L29 146L29 133L33 132L33 158L29 161L32 163L32 164L29 164L29 165C31.7622 166.672 31.7697 167.935 31 171L37 169L35 172L35 173L40 172C38.7336 164.425 44.9409 166.129 50 168L49 166L50 166L74 167L88 165L101 163L116 156L118 118L139 115L139 107L119 111C117.909 106.015 101.498 111.15 97 112L97 111L99 111L99 110L90 107L92 101L103 107L105 105C103.621 102.243 101.727 100.182 105 101L102 58C89.265 58.0084 75.6218 64.217 64 59z"/>
<path style="fill:#956859; stroke:none;" d="M107 59L107 60L111 60L107 59z"/>
<path style="fill:#b5c1c1; stroke:none;" d="M123.667 58.3333L124.333 58.6667L123.667 58.3333M130 58L131 59L130 58z"/>
<path style="fill:#b29587; stroke:none;" d="M134 58L135 59L134 58M19 59L20 60L19 59z"/>
<path style="fill:#956859; stroke:none;" d="M31 59L32 60L31 59z"/>
<path style="fill:#b29587; stroke:none;" d="M35 59L35 61L30 60L30 61C33.5487 61.8066 35.9035 62.2229 38 59L35 59M59 59L59 60L63 60L59 59z"/>
<path style="fill:#6a959f; stroke:none;" d="M65 59L66 60L65 59z"/>
<path style="fill:#353a3d; stroke:none;" d="M103 59L104 60L103 59z"/>
<path style="fill:#956859; stroke:none;" d="M112 59L113 60L112 59z"/>
<path style="fill:#b5c1c1; stroke:none;" d="M115 59L116 60L115 59z"/>
<path style="fill:#956859; stroke:none;" d="M123.667 59.3333L124.333 59.6667L123.667 59.3333z"/>
<path style="fill:#b5c1c1; stroke:none;" d="M128 59L129 60L128 59z"/>
<path style="fill:#b29587; stroke:none;" d="M25 60L26 61L25 60M27 60L29 63L29 62L27 60z"/>
<path style="fill:#b5c1c1; stroke:none;" d="M32 60L33 61L32 60z"/>
<path style="fill:#956859; stroke:none;" d="M42 60L43 61L42 60z"/>
<path style="fill:#6a959f; stroke:none;" d="M62 60L63 64L67 62L62 60z"/>
<path style="fill:#b29587; stroke:none;" d="M73 60L74 61L73 60z"/>
<path style="fill:#956859; stroke:none;" d="M77 60L78 61L77 60z"/>
<path style="fill:#b5c1c1; stroke:none;" d="M104 60L105 61L104 60M107 60L107 61L111 62L111 61L107 60M117 61L117 62L121 61L117 61z"/>
<path style="fill:#956859; stroke:none;" d="M122 60L123 61L122 60M135 61L137 63L137 64L133 64L133 65L135 67L132 70L133 70L134 70L137 68L136 65L139 64L139 60L135 61z"/>
<path style="fill:#353a3d; stroke:none;" d="M20 61L21 62L20 61z"/>
<path style="fill:#b29587; stroke:none;" d="M22 63L25 63L24 61L22 63z"/>
<path style="fill:#956859; stroke:none;" d="M68 61L69 62L68 61z"/>
<path style="fill:#b29587; stroke:none;" d="M70 61L71 62L70 61z"/>
<path style="fill:#6a959f; stroke:none;" d="M76 61L77 62L76 61z"/>
<path style="fill:#b29587; stroke:none;" d="M118.667 61.3333L119.333 61.6667L118.667 61.3333z"/>
<path style="fill:#956859; stroke:none;" d="M117 62L117 63L123 63L117 62z"/>
<path style="fill:#b29587; stroke:none;" d="M138.333 61.6667L138.667 62.3333L138.333 61.6667M16 62L17 63L16 62M20 62L21 63L20 62z"/>
<path style="fill:#956859; stroke:none;" d="M67 62L68 63L67 62z"/>
<path style="fill:#6a959f; stroke:none;" d="M71.6667 62.3333L72.3333 62.6667L71.6667 62.3333M77 62L78 63L77 62z"/>
<path style="fill:#b5c1c1; stroke:none;" d="M78 62L79 63L78 62M103 62L104 63L103 62M105 62L106 63L105 62M107 62L108 63L107 62M113 62L115 65L113 62z"/>
<path style="fill:#353a3d; stroke:none;" d="M7.66667 63.3333L8.33333 63.6667L7.66667 63.3333M11 63L10 65L11 63z"/>
<path style="fill:#6a959f; stroke:none;" d="M73 63L74 64L73 63M79 63L80 64L79 63z"/>
<path style="fill:#956859; stroke:none;" d="M104 63L105 64L104 63z"/>
<path style="fill:#b5c1c1; stroke:none;" d="M122 63L123 64L122 63M124 63L125 64L124 63M126.667 63.3333L127.333 63.6667L126.667 63.3333z"/>
<path style="fill:#956859; stroke:none;" d="M132 63L133 64L132 63z"/>
<path style="fill:#b29587; stroke:none;" d="M13 64L12 66L13 64z"/>
<path style="fill:#353a3d; stroke:none;" d="M15 64L16 65L15 64z"/>
<path style="fill:#6a959f; stroke:none;" d="M62 64L63 65L62 64M76.3333 64.6667L76.6667 65.3333L76.3333 64.6667M80 64L81 65L80 64z"/>
<path style="fill:#956859; stroke:none;" d="M103 64L104 65L103 64z"/>
<path style="fill:#b5c1c1; stroke:none;" d="M107 64L108 65L107 64z"/>
<path style="fill:#956859; stroke:none;" d="M111 64L112 65L111 64M117 64L118 65L117 64z"/>
<path style="fill:#b5c1c1; stroke:none;" d="M118 64L119 65L118 64z"/>
<path style="fill:#956859; stroke:none;" d="M124 64L125 65L124 64z"/>
<path style="fill:#b5c1c1; stroke:none;" d="M130 64L132 66L130 64z"/>
<path style="fill:#353a3d; stroke:none;" d="M2 65L3 66L2 65z"/>
<path style="fill:#b29587; stroke:none;" d="M3 65L4 66L3 65z"/>
<path style="fill:#353a3d; stroke:none;" d="M4.66667 65.3333L5.33333 65.6667L4.66667 65.3333z"/>
<path style="fill:#b29587; stroke:none;" d="M7.66667 65.3333L8.33333 65.6667L7.66667 65.3333z"/>
<path style="fill:#b5c1c1; stroke:none;" d="M57 65L58 66L57 65z"/>
<path style="fill:#6a959f; stroke:none;" d="M58 65L61 67L58 65M64 65L64 67L66 67L66 65L64 65z"/>
<path style="fill:#956859; stroke:none;" d="M72 65L73 66L72 65M74 65L75 66L74 65z"/>
<path style="fill:#b5c1c1; stroke:none;" d="M75 65L76 66L75 65z"/>
<path style="fill:#6a959f; stroke:none;" d="M81.6667 65.3333L82.3333 65.6667L81.6667 65.3333z"/>
<path style="fill:#b29587; stroke:none;" d="M83 65L84 66L83 65z"/>
<path style="fill:#956859; stroke:none;" d="M84.3333 65.6667L84.6667 66.3333L84.3333 65.6667M105 65L106 66L105 65z"/>
<path style="fill:#b5c1c1; stroke:none;" d="M112 65L113 66L112 65M121 65L122 66L121 65M133 65L134 66L133 65z"/>
<path style="fill:#353a3d; stroke:none;" d="M15.6667 66.3333L16.3333 66.6667L15.6667 66.3333z"/>
<path style="fill:#956859; stroke:none;" d="M70.6667 66.3333L71.3333 66.6667L70.6667 66.3333M73 66L74 67L73 66M108 66L107 68L108 66z"/>
<path style="fill:#b5c1c1; stroke:none;" d="M111 66L112 67L111 66M113 66L114 67L113 66z"/>
<path style="fill:#956859; stroke:none;" d="M117 66L118 67L117 66M124.333 66.6667L124.667 67.3333L124.333 66.6667z"/>
<path style="fill:#353a3d; stroke:none;" d="M1 67L2 68L1 67z"/>
<path style="fill:#b29587; stroke:none;" d="M7 67L8 68L7 67M17 67L18 68L17 67z"/>
<path style="fill:#956859; stroke:none;" d="M54 67L55 68L54 67M65 67L66 68L65 67z"/>
<path style="fill:#6a959f; stroke:none;" d="M84 67L85 68L84 67z"/>
<path style="fill:#956859; stroke:none;" d="M110.667 67.3333L111.333 67.6667L110.667 67.3333M131 67L132 68L131 67M138 67L136 71L138 67z"/>
<path style="fill:#353a3d; stroke:none;" d="M0.333333 68.6667L0.666667 69.3333L0.333333 68.6667z"/>
<path style="fill:#b29587; stroke:none;" d="M14 68L15 69L14 68z"/>
<path style="fill:#6a959f; stroke:none;" d="M55 68L56 69L55 68z"/>
<path style="fill:#956859; stroke:none;" d="M84 68L85 69L84 68M102 68L102 70L104 70L102 68M116 68L116 69L121 69L116 68z"/>
<path style="fill:#b5c1c1; stroke:none;" d="M122 68L123 69L122 68M133 68L134 69L133 68z"/>
<path style="fill:#b29587; stroke:none;" d="M7 69L8 70L7 69M11 70L11 71L17 73L17 72L13 69L11 70z"/>
<path style="fill:#956859; stroke:none;" d="M56 69L57 70L56 69z"/>
<path style="fill:#b5c1c1; stroke:none;" d="M108 69L109 70L108 69M111 69L111 71L113 69L111 69M114 69L115 70L114 69M116 69L118 71L118 69L116 69M124 69L128 72L128 71L124 69z"/>
<path style="fill:#956859; stroke:none;" d="M130 69L131 70L130 69z"/>
<path style="fill:#b29587; stroke:none;" d="M2.66667 70.3333L3.33333 70.6667L2.66667 70.3333M9 70L10 74L11 74L9 70z"/>
<path style="fill:#6a959f; stroke:none;" d="M56.3333 70.6667L56.6667 71.3333L56.3333 70.6667z"/>
<path style="fill:#956859; stroke:none;" d="M86 70L87 71L86 70z"/>
<path style="fill:#b5c1c1; stroke:none;" d="M104 70L105 71L104 70z"/>
<path style="fill:#956859; stroke:none;" d="M108 70L109 71L108 70z"/>
<path style="fill:#b5c1c1; stroke:none;" d="M115 70L116 71L115 70z"/>
<path style="fill:#956859; stroke:none;" d="M119 70L119 72L121 72L119 70z"/>
<path style="fill:#b5c1c1; stroke:none;" d="M122 70L123 71L122 70z"/>
<path style="fill:#956859; stroke:none;" d="M134 70L135 71L134 70M79 71L80 72L79 71M102 71C102.209 73.8585 102.174 75 105 75L103 72L105 73L102 71M112 71L113 72L112 71M117 71L118 72L117 71M108 72L109 73L108 72z"/>
<path style="fill:#b5c1c1; stroke:none;" d="M108 74L111 72L108 74M113 72L114 73L113 72M129 72L130 73L129 72z"/>
<path style="fill:#956859; stroke:none;" d="M135 72L136 73L135 72z"/>
<path style="fill:#b29587; stroke:none;" d="M1 73L1 74L3 75L1 78L4 73L1 73M5 73L6 74L5 73M7 73L7 76L4 77L4 78L13 76L13 75L7 73M18 73L18 76L19 76L18 73z"/>
<path style="fill:#6a959f; stroke:none;" d="M60 73L61 74L60 73z"/>
<path style="fill:#956859; stroke:none;" d="M86 73L87 74L86 73z"/>
<path style="fill:#b5c1c1; stroke:none;" d="M115 73L117 76L115 73z"/>
<path style="fill:#956859; stroke:none;" d="M125 73L126 74L125 73M129 73L130 74L129 73M135 75L139 77L139 73L135 75z"/>
<path style="fill:#b29587; stroke:none;" d="M0 74L1 75L0 74z"/>
<path style="fill:#956859; stroke:none;" d="M7 74L8 75L7 74z"/>
<path style="fill:#353a3d; stroke:none;" d="M10.6667 74.3333L11.3333 74.6667L10.6667 74.3333z"/>
<path style="fill:#956859; stroke:none;" d="M54 74L55 75L54 74M83 74L84 75L83 74M117 74L118 75L117 74z"/>
<path style="fill:#b5c1c1; stroke:none;" d="M121 74L121 76L123 76L123 74L121 74M128.667 74.3333L129.333 74.6667L128.667 74.3333z"/>
<path style="fill:#956859; stroke:none;" d="M106 75L107 76L106 75z"/>
<path style="fill:#b5c1c1; stroke:none;" d="M111.667 75.3333L112.333 75.6667L111.667 75.3333z"/>
<path style="fill:#956859; stroke:none;" d="M113.667 75.3333L114.333 75.6667L113.667 75.3333z"/>
<path style="fill:#b5c1c1; stroke:none;" d="M118 75L119 76L118 75M125 75L126 76L125 75M130 75L131 76L130 75z"/>
<path style="fill:#b29587; stroke:none;" d="M0 76L1 77L0 76z"/>
<path style="fill:#353a3d; stroke:none;" d="M12 76L13 77L12 76z"/>
<path style="fill:#b29587; stroke:none;" d="M14 76L15 77L14 76z"/>
<path style="fill:#956859; stroke:none;" d="M65 76L66 77L65 76M102 76L103 77L102 76M104 76L105 77L104 76M111.667 76.3333L112.333 76.6667L111.667 76.3333M115 76L116 77L115 76z"/>
<path style="fill:#b5c1c1; stroke:none;" d="M123.667 76.3333L124.333 76.6667L123.667 76.3333M126.667 76.3333L127.333 76.6667L126.667 76.3333M129 76L130 77L129 76z"/>
<path style="fill:#956859; stroke:none;" d="M134.667 76.3333L135.333 76.6667L134.667 76.3333z"/>
<path style="fill:#b29587; stroke:none;" d="M11 77L10 79L12 79L11 77z"/>
<path style="fill:#6a959f; stroke:none;" d="M53.3333 77.6667L53.6667 78.3333L53.3333 77.6667z"/>
<path style="fill:#956859; stroke:none;" d="M54 77L55 78L54 77z"/>
<path style="fill:#6a959f; stroke:none;" d="M65 77L66 78L65 77z"/>
<path style="fill:#956859; stroke:none;" d="M72 77L75 79L72 77z"/>
<path style="fill:#b5c1c1; stroke:none;" d="M109 77L110 78L109 77z"/>
<path style="fill:#956859; stroke:none;" d="M114 77L115 78L114 77M117 77L118 78L117 77z"/>
<path style="fill:#b5c1c1; stroke:none;" d="M119 77L120 78L119 77M128 77L129 78L128 77M132 77L134 79L132 77z"/>
<path style="fill:#b29587; stroke:none;" d="M17 78L18 79L17 78z"/>
<path style="fill:#6a959f; stroke:none;" d="M72 78L73 79L72 78z"/>
<path style="fill:#956859; stroke:none;" d="M104 78L105 79L104 78M109 78L111 80L111 78L109 78z"/>
<path style="fill:#b5c1c1; stroke:none;" d="M111 78L112 79L111 78M125 78L126 79L125 78M130 78L131 79L130 78z"/>
<path style="fill:#956859; stroke:none;" d="M132 78L133 79L132 78M135 78L136 79L135 78z"/>
<path style="fill:#b29587; stroke:none;" d="M6 79L7 80L6 79M9 79L10 80L9 79M12 79L12 80L16 80L12 79z"/>
<path style="fill:#956859; stroke:none;" d="M65 79L66 80L65 79M112 80L112 82L119 82L112 80M122 79L122 80L125 80L122 79M136 79L138 81L138 79L136 79z"/>
<path style="fill:#b29587; stroke:none;" d="M2 82L9 82L12 84L12 83L9 80L2 82z"/>
<path style="fill:#6a959f; stroke:none;" d="M89 80L90 81L89 80z"/>
<path style="fill:#956859; stroke:none;" d="M103 80L107 82L103 80z"/>
<path style="fill:#b5c1c1; stroke:none;" d="M104 80L105 81L104 80M114 80L115 81L114 80M129 80L128 82L129 80z"/>
<path style="fill:#956859; stroke:none;" d="M131 80L133 84L136 81L131 80z"/>
<path style="fill:#b5c1c1; stroke:none;" d="M134 80L135 81L134 80M138 80L139 81L138 80z"/>
<path style="fill:#b29587; stroke:none;" d="M16 81L17 82L16 81z"/>
<path style="fill:#956859; stroke:none;" d="M109 81L110 82L109 81z"/>
<path style="fill:#b5c1c1; stroke:none;" d="M119 81L120 82L119 81z"/>
<path style="fill:#956859; stroke:none;" d="M120 81L123 83L120 81M129 81L132 84L129 81z"/>
<path style="fill:#b29587; stroke:none;" d="M13 82L14 83L13 82z"/>
<path style="fill:#956859; stroke:none;" d="M107 82C107 84.988 108.253 84.8289 111 84L111 83L107 82z"/>
<path style="fill:#b5c1c1; stroke:none;" d="M111 82L112 83L111 82z"/>
<path style="fill:#956859; stroke:none;" d="M125.333 82.6667L125.667 83.3333L125.333 82.6667M136 85L139 85C138.338 81.8496 136.662 81.8496 136 85z"/>
<path style="fill:#b29587; stroke:none;" d="M1 83L2 84L1 83z"/>
<path style="fill:#353a3d; stroke:none;" d="M16.6667 83.3333L17.3333 83.6667L16.6667 83.3333z"/>
<path style="fill:#b29587; stroke:none;" d="M19 83L16 87L19 83z"/>
<path style="fill:#956859; stroke:none;" d="M104 83L105 84L104 83M119 83L121 85L121 83L119 83M123 83L124 84L123 83z"/>
<path style="fill:#b29587; stroke:none;" d="M3 84L2 86L3 84M6 84L7 85L6 84M12 84L12 85L16 85L12 84z"/>
<path style="fill:#956859; stroke:none;" d="M51 84L49 85L49 86L51 84z"/>
<path style="fill:#6a959f; stroke:none;" d="M91 84L92 85L91 84z"/>
<path style="fill:#b29587; stroke:none;" d="M92 84L93 85L92 84z"/>
<path style="fill:#956859; stroke:none;" d="M103 84L104 85L103 84M134 84L139 88L138 85L134 84z"/>
<path style="fill:#b29587; stroke:none;" d="M9 85L9 86L12 87L12 86L12 85L9 85z"/>
<path style="fill:#6a959f; stroke:none;" d="M51 85L52 86L51 85z"/>
<path style="fill:#956859; stroke:none;" d="M93 85L93 86L96 86L93 85z"/>
<path style="fill:#b5c1c1; stroke:none;" d="M111 85L112 86L111 85z"/>
<path style="fill:#956859; stroke:none;" d="M114 85L115 86L114 85M121 85L122 86L121 85M129 85L130 86L129 85M132 85L133 86L132 85z"/>
<path style="fill:#b29587; stroke:none;" d="M0 87L0 88L8 87L0 87z"/>
<path style="fill:#353a3d; stroke:none;" d="M9 86L10 87L9 86z"/>
<path style="fill:#6a959f; stroke:none;" d="M93.6667 86.3333L94.3333 86.6667L93.6667 86.3333z"/>
<path style="fill:#b29587; stroke:none;" d="M96 86L97 87L96 86z"/>
<path style="fill:#956859; stroke:none;" d="M103 89L104 89L106 87C103.86 85.8822 103.473 86.7492 103 89M118 86L119 87L118 86z"/>
<path style="fill:#b5c1c1; stroke:none;" d="M129 86L130 87L129 86M134 86L135 87L134 86M4 87L5 88L4 87z"/>
<path style="fill:#b29587; stroke:none;" d="M12 87L13 88L12 87M14.6667 87.3333L15.3333 87.6667L14.6667 87.3333z"/>
<path style="fill:#956859; stroke:none;" d="M75 87L76 88L75 87z"/>
<path style="fill:#6a959f; stroke:none;" d="M97 87L98 88L97 87z"/>
<path style="fill:#b29587; stroke:none;" d="M98 87L98 88L101 89L101 93L103 89L98 87z"/>
<path style="fill:#956859; stroke:none;" d="M100.667 87.3333L101.333 87.6667L100.667 87.3333M111 87L114 89L114 88L111 87M127 87L128 88L127 87z"/>
<path style="fill:#b5c1c1; stroke:none;" d="M131.667 87.3333L132.333 87.6667L131.667 87.3333z"/>
<path style="fill:#956859; stroke:none;" d="M133 87L134 88L133 87z"/>
<path style="fill:#b29587; stroke:none;" d="M7 88L8 89L7 88z"/>
<path style="fill:#353a3d; stroke:none;" d="M10 88L8 89L8 90L10 88z"/>
<path style="fill:#b29587; stroke:none;" d="M17.3333 88.6667L17.6667 89.3333L17.3333 88.6667z"/>
<path style="fill:#956859; stroke:none;" d="M48 88L49 89L48 88M51 88L52 89L51 88z"/>
<path style="fill:#b5c1c1; stroke:none;" d="M95 89L95 93L96 93L97 89L98 89L97 93L101 93C100.196 89.1649 98.8798 88.0828 95 89M101 88L102 89L101 88z"/>
<path style="fill:#956859; stroke:none;" d="M106 88L106 89L110 89L106 88M118 88L119 91L124 92L123 88L118 88M124 88L125 89L124 88z"/>
<path style="fill:#b5c1c1; stroke:none;" d="M125.667 88.3333L126.333 88.6667L125.667 88.3333z"/>
<path style="fill:#956859; stroke:none;" d="M131.667 88.3333L132.333 88.6667L131.667 88.3333M134 88L137 90L137 89L134 88z"/>
<path style="fill:#353a3d; stroke:none;" d="M3 89L4 90L3 89z"/>
<path style="fill:#b29587; stroke:none;" d="M5 89L6 90L5 89z"/>
<path style="fill:#956859; stroke:none;" d="M53 89L54 90L53 89z"/>
<path style="fill:#6a959f; stroke:none;" d="M55 89L56 90L55 89z"/>
<path style="fill:#956859; stroke:none;" d="M97 89L98 90L97 89z"/>
<path style="fill:#6a959f; stroke:none;" d="M100 89L101 90L100 89z"/>
<path style="fill:#956859; stroke:none;" d="M138 89L139 90L138 89z"/>
<path style="fill:#b29587; stroke:none;" d="M1 90L2 91L1 90M11 90L12 91L11 90z"/>
<path style="fill:#353a3d; stroke:none;" d="M12 90L13 91L12 90z"/>
<path style="fill:#b29587; stroke:none;" d="M15 90L14 92L15 90z"/>
<path style="fill:#6a959f; stroke:none;" d="M58 90L57 91L58 94L61 93L58 90M95 90L96 91L95 90z"/>
<path style="fill:#b29587; stroke:none;" d="M97 90L98 91L97 90z"/>
<path style="fill:#956859; stroke:none;" d="M102.333 90.6667L102.667 91.3333L102.333 90.6667M112 90L112 91L115 91L112 90M117 90L116 92L117 90z"/>
<path style="fill:#b5c1c1; stroke:none;" d="M126 90L128 92L126 90M129.333 90.6667L129.667 91.3333L129.333 90.6667z"/>
<path style="fill:#956859; stroke:none;" d="M133 90L134 91L133 90z"/>
<path style="fill:#b5c1c1; stroke:none;" d="M137.667 90.3333L138.333 90.6667L137.667 90.3333z"/>
<path style="fill:#b29587; stroke:none;" d="M3 91L2 93L3 91M7 91L8 92L7 91z"/>
<path style="fill:#353a3d; stroke:none;" d="M10 91L10 93L12 91L10 91M15 91L16 92L15 91M17.6667 91.3333L18.3333 91.6667L17.6667 91.3333z"/>
<path style="fill:#b5c1c1; stroke:none;" d="M59 93L59 95L67 101L60 95L60 94L65 92L72 101C68.6098 95.5079 65.9612 90.2687 59 93z"/>
<path style="fill:#956859; stroke:none;" d="M71 91L71 92L75 92L71 91M96 91L97 92L96 91z"/>
<path style="fill:#6a959f; stroke:none;" d="M97 91L98 92L97 91z"/>
<path style="fill:#956859; stroke:none;" d="M106 91L106 92L108 94L109 94L106 91M125 91L126 92L125 91M132 91L133 92L132 91M135 91L136 93L137 93L138 91L135 91z"/>
<path style="fill:#353a3d; stroke:none;" d="M138 91L139 92L138 91M14 92L15 93L14 92z"/>
<path style="fill:#b29587; stroke:none;" d="M20 92L21 93L20 92z"/>
<path style="fill:#353a3d; stroke:none;" d="M59 92L60 93L59 92z"/>
<path style="fill:#b29587; stroke:none;" d="M63 92L64 93L63 92z"/>
<path style="fill:#956859; stroke:none;" d="M64 92L65 93L64 92z"/>
<path style="fill:#6a959f; stroke:none;" d="M96 92L97 93L96 92z"/>
<path style="fill:#956859; stroke:none;" d="M104 92L105 93L104 92z"/>
<path style="fill:#b5c1c1; stroke:none;" d="M111.667 92.3333L112.333 92.6667L111.667 92.3333z"/>
<path style="fill:#956859; stroke:none;" d="M118 92L119 93L118 92M127 92L128 93L127 92M129 92L130 93L129 92M134 92L127 95L132 96L130 99L134 97L135 97L138 99L138 93L134 92z"/>
<path style="fill:#b29587; stroke:none;" d="M4 93L4 94L7 94L4 93z"/>
<path style="fill:#353a3d; stroke:none;" d="M8 93L9 94L8 93z"/>
<path style="fill:#b29587; stroke:none;" d="M10 93L11 94L10 93M16 93L17 94L16 93z"/>
<path style="fill:#956859; stroke:none;" d="M57 93L58 94L57 93z"/>
<path style="fill:#353a3d; stroke:none;" d="M63 93L67 98L63 93z"/>
<path style="fill:#6a959f; stroke:none;" d="M97.6667 93.3333L98.3333 93.6667L97.6667 93.3333z"/>
<path style="fill:#b29587; stroke:none;" d="M99 93L100 94L99 93z"/>
<path style="fill:#6a959f; stroke:none;" d="M100.667 93.3333L101.333 93.6667L100.667 93.3333z"/>
<path style="fill:#956859; stroke:none;" d="M110.667 93.3333L111.333 93.6667L110.667 93.3333z"/>
<path style="fill:#b29587; stroke:none;" d="M112 93L113 94L112 93z"/>
<path style="fill:#956859; stroke:none;" d="M113 93L113 95L115 95L115 93L113 93z"/>
<path style="fill:#353a3d; stroke:none;" d="M2 94L1 95L1 96L2 97L3 97L4 96L4 95L2 94M13 94L14 95L13 94M15 94L16 95L15 94M18 94L19 95L18 94z"/>
<path style="fill:#b29587; stroke:none;" d="M60 94L61 95L60 94z"/>
<path style="fill:#956859; stroke:none;" d="M61 94L62 95L61 94z"/>
<path style="fill:#b29587; stroke:none;" d="M62 94L63 95L62 94z"/>
<path style="fill:#956859; stroke:none;" d="M63 94L64 95L63 94z"/>
<path style="fill:#6a959f; stroke:none;" d="M67 94L68 95L67 94z"/>
<path style="fill:#956859; stroke:none;" d="M97 94L98 95L97 94z"/>
<path style="fill:#b5c1c1; stroke:none;" d="M98.3333 94.6667L98.6667 95.3333L98.3333 94.6667z"/>
<path style="fill:#956859; stroke:none;" d="M99 94L100 95L99 94z"/>
<path style="fill:#b5c1c1; stroke:none;" d="M100 94L101 95L100 94M104 94L104 95L108 95L104 94M112 94L113 95L112 94z"/>
<path style="fill:#956859; stroke:none;" d="M116 94L117 95L116 94M119 94L120 95L119 94M122 94L122 98L123 98L126 97L126 96L122 94z"/>
<path style="fill:#b29587; stroke:none;" d="M2 95L3 96L2 95M5 95L6 96L5 95z"/>
<path style="fill:#353a3d; stroke:none;" d="M6 95L7 96L6 95z"/>
<path style="fill:#6a959f; stroke:none;" d="M59 95L60 96L59 95M63 95L64 96L63 95z"/>
<path style="fill:#956859; stroke:none;" d="M65 95L67 97L67 95L65 95z"/>
<path style="fill:#b29587; stroke:none;" d="M68 95L69 96L68 95z"/>
<path style="fill:#956859; stroke:none;" d="M69 95L70 96L69 95z"/>
<path style="fill:#6a959f; stroke:none;" d="M70 95L71 96L70 95M74 95L73 96L74 98L70 97C72.1119 100.83 74.8395 100.951 79 101L77 95L74 95z"/>
<path style="fill:#956859; stroke:none;" d="M91 95L92 96L91 95z"/>
<path style="fill:#b29587; stroke:none;" d="M97 95L98 96L97 95M99 95L100 96L99 95z"/>
<path style="fill:#956859; stroke:none;" d="M105 95L109 97L105 95z"/>
<path style="fill:#b5c1c1; stroke:none;" d="M108.667 95.3333L109.333 95.6667L108.667 95.3333M111 95L112 96L111 95z"/>
<path style="fill:#b29587; stroke:none;" d="M133 95L134 96L133 95M135.667 95.3333L136.333 95.6667L135.667 95.3333z"/>
<path style="fill:#353a3d; stroke:none;" d="M8 96L8 97L11 97L8 96z"/>
<path style="fill:#b29587; stroke:none;" d="M14 96L15 97L14 96M16 97L19 100L21 99L16 97M61 96L62 97L61 96z"/>
<path style="fill:#956859; stroke:none;" d="M84.6667 96.3333L85.3333 96.6667L84.6667 96.3333z"/>
<path style="fill:#6a959f; stroke:none;" d="M86 96L82 99L82 98L84 98L84 97L78 97C81.8289 100.892 86.0208 98.9171 91 99L91 98L86 96z"/>
<path style="fill:#b29587; stroke:none;" d="M87.3333 96.6667L87.6667 97.3333L87.3333 96.6667z"/>
<path style="fill:#6a959f; stroke:none;" d="M88 96L88 97L99 98L88 96z"/>
<path style="fill:#956859; stroke:none;" d="M98.6667 96.3333L99.3333 96.6667L98.6667 96.3333z"/>
<path style="fill:#6a959f; stroke:none;" d="M100 96L101 97L100 96z"/>
<path style="fill:#b29587; stroke:none;" d="M101 96L102 97L101 96z"/>
<path style="fill:#956859; stroke:none;" d="M102 96L103 97L102 96M117 96L118 97L117 96M119 96L120 97L119 96z"/>
<path style="fill:#b29587; stroke:none;" d="M5 97L6 98L5 97z"/>
<path style="fill:#956859; stroke:none;" d="M62 97L63 98L62 97z"/>
<path style="fill:#6a959f; stroke:none;" d="M65 97L66 98L65 97z"/>
<path style="fill:#956859; stroke:none;" d="M69 97L70 98L69 97z"/>
<path style="fill:#b5c1c1; stroke:none;" d="M71.6667 97.3333L72.3333 97.6667L71.6667 97.3333z"/>
<path style="fill:#353a3d; stroke:none;" d="M73 97L74 98L73 97z"/>
<path style="fill:#b5c1c1; stroke:none;" d="M76 97L76 98L79 99L76 97z"/>
<path style="fill:#956859; stroke:none;" d="M80 97L81 98L80 97z"/>
<path style="fill:#b29587; stroke:none;" d="M81 97L82 98L81 97M84 97L84 99L86 97L84 97z"/>
<path style="fill:#b5c1c1; stroke:none;" d="M88 97L88 98L92 98L88 97z"/>
<path style="fill:#956859; stroke:none;" d="M105 97L107 99L105 97M114 97L115 98L114 97z"/>
<path style="fill:#6a959f; stroke:none;" d="M115 97L116 98L115 97z"/>
<path style="fill:#b29587; stroke:none;" d="M134 97L135 98L134 97M138 97L135 101L138 97z"/>
<path style="fill:#353a3d; stroke:none;" d="M0 98L1 99L0 98M2 98L1 100L2 98z"/>
<path style="fill:#b29587; stroke:none;" d="M11 98L12 99L11 98z"/>
<path style="fill:#6a959f; stroke:none;" d="M63 98L60 100L60 101L71 102L67 98L64 101L65 98L63 98z"/>
<path style="fill:#b29587; stroke:none;" d="M66 98L67 99L66 98z"/>
<path style="fill:#353a3d; stroke:none;" d="M68 98L69 99L68 98z"/>
<path style="fill:#b5c1c1; stroke:none;" d="M73 99L73 100L77 100L73 99z"/>
<path style="fill:#956859; stroke:none;" d="M77 98L78 99L77 98z"/>
<path style="fill:#b5c1c1; stroke:none;" d="M82.6667 98.3333L83.3333 98.6667L82.6667 98.3333M86 98L87 99L86 98z"/>
<path style="fill:#956859; stroke:none;" d="M91 98L92 99L91 98z"/>
<path style="fill:#b5c1c1; stroke:none;" d="M110 98L109 100L110 98z"/>
<path style="fill:#6a959f; stroke:none;" d="M117.667 98.3333L118.333 98.6667L117.667 98.3333z"/>
<path style="fill:#b5c1c1; stroke:none;" d="M121 98L122 99L121 98z"/>
<path style="fill:#956859; stroke:none;" d="M125 98L126 99L125 98M127.667 98.3333L128.333 98.6667L127.667 98.3333z"/>
<path style="fill:#6a959f; stroke:none;" d="M132 98L133 99L132 98M134 98L135 99L134 98z"/>
<path style="fill:#353a3d; stroke:none;" d="M4 99L5 100L4 99M6.33333 99.6667L6.66667 100.333L6.33333 99.6667z"/>
<path style="fill:#b29587; stroke:none;" d="M16 99L17 100L16 99z"/>
<path style="fill:#353a3d; stroke:none;" d="M67 99L68 100L67 99z"/>
<path style="fill:#956859; stroke:none;" d="M104 99L105 100L104 99M107 99L103 100L105 105L102 106L103 110L98 109L97 111L97 112L117 109L116 105L111 103L106 104L106 103L107 99M114 99L115 100L114 99M117 99L117 100L121 100L117 99z"/>
<path style="fill:#b5c1c1; stroke:none;" d="M122 99L122 101L124 99L122 99M129 99L130 100L129 99M131 99L132 100L131 99M111 102C114.816 106.755 137.691 105.11 139 99L135 101L136 99L111 102z"/>
<path style="fill:#6a959f; stroke:none;" d="M0 100L1 101L0 100z"/>
<path style="fill:#b29587; stroke:none;" d="M14 100L15 101L14 100z"/>
<path style="fill:#6a959f; stroke:none;" d="M19 100L20 101L19 100z"/>
<path style="fill:#956859; stroke:none;" d="M59 100L60 101L59 100M64 100L65 101L64 100z"/>
<path style="fill:#6a959f; stroke:none;" d="M119 100L120 101L119 100z"/>
<path style="fill:#b5c1c1; stroke:none;" d="M125 100L126 101L125 100M128 100L129 101L128 100z"/>
<path style="fill:#353a3d; stroke:none;" d="M0 101L0 102L3 102L0 101z"/>
<path style="fill:#6a959f; stroke:none;" d="M4 101L5 102L4 101z"/>
<path style="fill:#b29587; stroke:none;" d="M6 101L7 102L6 101z"/>
<path style="fill:#353a3d; stroke:none;" d="M9 101L7 102L7 103L9 101z"/>
<path style="fill:#b29587; stroke:none;" d="M11 101L12 102L11 101z"/>
<path style="fill:#353a3d; stroke:none;" d="M17 101L18 102L17 101z"/>
<path style="fill:#b29587; stroke:none;" d="M19 101L20 102L19 101M21 101L22 102L21 101z"/>
<path style="fill:#b5c1c1; stroke:none;" d="M69 101L70 102L69 101z"/>
<path style="fill:#956859; stroke:none;" d="M92 101L92 103L94 101L92 101z"/>
<path style="fill:#6a959f; stroke:none;" d="M122.667 101.333L123.333 101.667L122.667 101.333z"/>
<path style="fill:#956859; stroke:none;" d="M124 101L125 102L124 101z"/>
<path style="fill:#6a959f; stroke:none;" d="M126 101L127 102L126 101z"/>
<path style="fill:#353a3d; stroke:none;" d="M3 102L3 103L6 104L3 102M12 102L13 103L12 102z"/>
<path style="fill:#b29587; stroke:none;" d="M15.3333 102.667L15.6667 103.333L15.3333 102.667z"/>
<path style="fill:#956859; stroke:none;" d="M84.6667 102.333L85.3333 102.667L84.6667 102.333z"/>
<path style="fill:#6a959f; stroke:none;" d="M84 104L87 102L84 104z"/>
<path style="fill:#b5c1c1; stroke:none;" d="M91.3333 102.667L91.6667 103.333L91.3333 102.667z"/>
<path style="fill:#b29587; stroke:none;" d="M93 102L97 104L93 102z"/>
<path style="fill:#956859; stroke:none;" d="M95 102L96 103L95 102z"/>
<path style="fill:#353a3d; stroke:none;" d="M106 103L106 104L110 104L106 103z"/>
<path style="fill:#6a959f; stroke:none;" d="M134 102C131.157 106.913 125.241 106.955 120 107C123.659 112.155 137.954 109.293 139 103L134 102z"/>
<path style="fill:#353a3d; stroke:none;" d="M137.667 102.333L138.333 102.667L137.667 102.333z"/>
<path style="fill:#b29587; stroke:none;" d="M10 103L11 104L10 103M21 103L22 104L21 103z"/>
<path style="fill:#353a3d; stroke:none;" d="M92 103L93 104L92 103z"/>
<path style="fill:#b5c1c1; stroke:none;" d="M93 103L94 104L93 103z"/>
<path style="fill:#6a959f; stroke:none;" d="M127 103L127 105L129 105L129 103L127 103z"/>
<path style="fill:#353a3d; stroke:none;" d="M129 103L129 104L134 104L129 103z"/>
<path style="fill:#b5c1c1; stroke:none;" d="M137 103L138 104L137 103z"/>
<path style="fill:#b29587; stroke:none;" d="M0 104L1 105L0 104z"/>
<path style="fill:#353a3d; stroke:none;" d="M3 104L4 105L3 104z"/>
<path style="fill:#956859; stroke:none;" d="M87.3333 104.667L87.6667 105.333L87.3333 104.667z"/>
<path style="fill:#6a959f; stroke:none;" d="M89 104L90 105L89 104M91 104L91 108L98 107L95 104L91 104z"/>
<path style="fill:#b5c1c1; stroke:none;" d="M95 107L103 109C100.658 106.212 97.6484 103.295 95 107z"/>
<path style="fill:#353a3d; stroke:none;" d="M111 104L112 105L111 104z"/>
<path style="fill:#6a959f; stroke:none;" d="M120 106L123 104L120 106z"/>
<path style="fill:#353a3d; stroke:none;" d="M123 104L123 105L127 105L123 104z"/>
<path style="fill:#b5c1c1; stroke:none;" d="M116 106L116 107L122 110L122 109L120 107L134 105L116 106z"/>
<path style="fill:#353a3d; stroke:none;" d="M8.66667 105.333L9.33333 105.667L8.66667 105.333M14.6667 105.333L15.3333 105.667L14.6667 105.333z"/>
<path style="fill:#6a959f; stroke:none;" d="M16 105L18 107L18 105L16 105z"/>
<path style="fill:#b29587; stroke:none;" d="M18 105L19 106L18 105M21 105L22 106L21 105z"/>
<path style="fill:#956859; stroke:none;" d="M60 105L61 106L60 105M99 105L100 106L99 105z"/>
<path style="fill:#353a3d; stroke:none;" d="M113 105L114 106L113 105z"/>
<path style="fill:#b29587; stroke:none;" d="M114 105L115 106L114 105z"/>
<path style="fill:#353a3d; stroke:none;" d="M116 105L116 106L120 106L116 105z"/>
<path style="fill:#b29587; stroke:none;" d="M0 106L1 107L0 106z"/>
<path style="fill:#6a959f; stroke:none;" d="M14 106L15 107L14 106z"/>
<path style="fill:#b29587; stroke:none;" d="M20 106L22 108L20 106z"/>
<path style="fill:#b5c1c1; stroke:none;" d="M90 106L91 107L90 106z"/>
<path style="fill:#353a3d; stroke:none;" d="M4 107L5 108L4 107M10 107L10 108L13 108L10 107z"/>
<path style="fill:#b29587; stroke:none;" d="M18 107L17 109L18 107z"/>
<path style="fill:#6a959f; stroke:none;" d="M117 107L118 108L117 107z"/>
<path style="fill:#b5c1c1; stroke:none;" d="M125 107L126 108L125 107M133 107L134 108L133 107z"/>
<path style="fill:#b29587; stroke:none;" d="M4.33333 108.667L4.66667 109.333L4.33333 108.667z"/>
<path style="fill:#353a3d; stroke:none;" d="M15 108L16 109L15 108z"/>
<path style="fill:#6a959f; stroke:none;" d="M18.6667 108.333L19.3333 108.667L18.6667 108.333z"/>
<path style="fill:#956859; stroke:none;" d="M84 108L84 109L87 110L84 108z"/>
<path style="fill:#b5c1c1; stroke:none;" d="M127 108L128 109L127 108z"/>
<path style="fill:#353a3d; stroke:none;" d="M3 109L4 110L3 109z"/>
<path style="fill:#b29587; stroke:none;" d="M6 109L7 110L6 109z"/>
<path style="fill:#353a3d; stroke:none;" d="M11 109L12 110L11 109z"/>
<path style="fill:#6a959f; stroke:none;" d="M20 109L21 110L20 109z"/>
<path style="fill:#b29587; stroke:none;" d="M21 109L22 110L21 109z"/>
<path style="fill:#b5c1c1; stroke:none;" d="M96 109L97 110L96 109z"/>
<path style="fill:#b29587; stroke:none;" d="M97 109L98 110L97 109z"/>
<path style="fill:#353a3d; stroke:none;" d="M100 109L100 110L103 110L100 109z"/>
<path style="fill:#b29587; stroke:none;" d="M8.66667 110.333L9.33333 110.667L8.66667 110.333z"/>
<path style="fill:#353a3d; stroke:none;" d="M13 110L14 111L13 110z"/>
<path style="fill:#b29587; stroke:none;" d="M16 110L16 111L19 111L19 110L16 110z"/>
<path style="fill:#956859; stroke:none;" d="M119 110L120 111L119 110z"/>
<path style="fill:#b29587; stroke:none;" d="M22.3333 111.667L22.6667 112.333L22.3333 111.667z"/>
<path style="fill:#956859; stroke:none;" d="M91 111L92 112L91 111z"/>
<path style="fill:#353a3d; stroke:none;" d="M1 113L1 114L4 114L1 113M5 114L5 115L10 113L5 114M12 112L13 113L12 112M16 112L17 113L16 112z"/>
<path style="fill:#b29587; stroke:none;" d="M12.3333 113.667L12.6667 114.333L12.3333 113.667z"/>
<path style="fill:#6a959f; stroke:none;" d="M14 113L15 114L14 113z"/>
<path style="fill:#b29587; stroke:none;" d="M15 113L15 114L18 114L15 113M20 113L22 117L23 117L20 113z"/>
<path style="fill:#6a959f; stroke:none;" d="M8 114L1 119L2 120L3 118L6 119L8 114z"/>
<path style="fill:#353a3d; stroke:none;" d="M10 114L11 115L10 114z"/>
<path style="fill:#6a959f; stroke:none;" d="M11 114L12 115L11 114M18 114L19 115L18 114M20 114L21 115L20 114z"/>
<path style="fill:#353a3d; stroke:none;" d="M1 115L2 116L1 115M8 115L9 116L8 115z"/>
<path style="fill:#6a959f; stroke:none;" d="M10 115L11 116L10 115z"/>
<path style="fill:#353a3d; stroke:none;" d="M12 115L13 116L12 115z"/>
<path style="fill:#b29587; stroke:none;" d="M15 116L15 117L19 117L15 116z"/>
<path style="fill:#b5c1c1; stroke:none;" d="M17 115L18 116L17 115z"/>
<path style="fill:#6a959f; stroke:none;" d="M19 115C20.1266 117.006 20.8734 117.006 22 115L19 115z"/>
<path style="fill:#956859; stroke:none;" d="M28 115L29 116L28 115z"/>
<path style="fill:#6a959f; stroke:none;" d="M73 115L74 116L73 115M118 118L118 119L139 119L139 115L118 118z"/>
<path style="fill:#353a3d; stroke:none;" d="M2.66667 116.333L3.33333 116.667L2.66667 116.333z"/>
<path style="fill:#b29587; stroke:none;" d="M12 116L14 118L12 116z"/>
<path style="fill:#b5c1c1; stroke:none;" d="M13 116L14 117L13 116z"/>
<path style="fill:#6a959f; stroke:none;" d="M93 116L94 117L93 116z"/>
<path style="fill:#b29587; stroke:none;" d="M6.33333 117.667L6.66667 118.333L6.33333 117.667z"/>
<path style="fill:#6a959f; stroke:none;" d="M8 117L7 119L9 119L8 117M11 117L12 118L11 117M15 117L16 118L15 117z"/>
<path style="fill:#b5c1c1; stroke:none;" d="M0 120L0 121L23 118L0 120z"/>
<path style="fill:#956859; stroke:none;" d="M30 117C32.9878 123.179 37.1639 121.61 43 122L39 119L34 122L32 120L30 117M95 117L96 118L95 117M111 117L112 118L111 117M122 117L123 118L122 117z"/>
<path style="fill:#b5c1c1; stroke:none;" d="M118 119L118 120L121 120L119 123L124 124L124 125L120 125L120 137L123 138C123.97 142.692 131.757 140.833 136 142L138 137L138 136L136 136L136 135L139 134L137 130C147.784 114.603 125.393 118.682 118 119z"/>
<path style="fill:#b29587; stroke:none;" d="M3 118L3 120L5 120L3 118z"/>
<path style="fill:#956859; stroke:none;" d="M4 118L5 119L4 118z"/>
<path style="fill:#b29587; stroke:none;" d="M9 118L10 119L9 118z"/>
<path style="fill:#6a959f; stroke:none;" d="M22 118L15 119C15 122.767 9.71355 120.214 7 120L7 121L9 121L9 122L0 121L0 122L3 122L3 123L0 123L0 128L23 125L22 118M93 118L94 119L93 118z"/>
<path style="fill:#956859; stroke:none;" d="M105 118L106 119L105 118z"/>
<path style="fill:#b29587; stroke:none;" d="M123 118L124 119L123 118z"/>
<path style="fill:#353a3d; stroke:none;" d="M17 119L17 120L22 120L17 119z"/>
<path style="fill:#956859; stroke:none;" d="M102 119L104 121L102 119z"/>
<path style="fill:#6a959f; stroke:none;" d="M102 120L102 121L110 121L109 132L103 134L102 129C96.2855 127.699 94.8874 133.241 101 133L103 144L104 144L104 141L109 144L112 119L102 120z"/>
<path style="fill:#353a3d; stroke:none;" d="M10 120L10 121L16 121L10 120M33 120L34 121L33 120z"/>
<path style="fill:#b29587; stroke:none;" d="M71 120L72 121L71 120z"/>
<path style="fill:#956859; stroke:none;" d="M73 120L74 121L73 120z"/>
<path style="fill:#6a959f; stroke:none;" d="M118 120L115 158L111 157L112 162C107.48 160.913 100.163 161.842 99 167L96 167L97 165L96 165L93 169L94 172L94 173L139 172L137 171L137 170C142.762 164.943 139 141.599 139 134L136 135L138 137L136 142L123 138L120 137L122 135L120 125L124 125L124 124L119 123L121 120L118 120z"/>
<path style="fill:#353a3d; stroke:none;" d="M3 121L3 122L9 122L3 121z"/>
<path style="fill:#6a959f; stroke:none;" d="M71 121L72 122L71 121z"/>
<path style="fill:#956859; stroke:none;" d="M95 121L95 123L97 121L95 121z"/>
<path style="fill:#b29587; stroke:none;" d="M102 121L103 122L102 121z"/>
<path style="fill:#b5c1c1; stroke:none;" d="M102 122L102 133L109 132L110 121L102 122z"/>
<path style="fill:#353a3d; stroke:none;" d="M0 122L0 123L3 123L0 122z"/>
<path style="fill:#6a959f; stroke:none;" d="M28 122L28 124L30 124L28 122z"/>
<path style="fill:#956859; stroke:none;" d="M71 122L72 123L71 122M90 122L91 123L90 122z"/>
<path style="fill:#6a959f; stroke:none;" d="M91 122L92 123L91 122M96 122L97 123L96 122M71.3333 123.667L71.6667 124.333L71.3333 123.667z"/>
<path style="fill:#b29587; stroke:none;" d="M89 123L90 124L89 123z"/>
<path style="fill:#b5c1c1; stroke:none;" d="M90 123L90 132L93 132L91 130L92 123L90 123M96 123L96 128L97 128L96 123z"/>
<path style="fill:#956859; stroke:none;" d="M88.3333 124.667L88.6667 125.333L88.3333 124.667z"/>
<path style="fill:#6a959f; stroke:none;" d="M89 124L89 132L90 132L89 124M92 124L91 130L92 124M97 124L97 127L98 127L101 127L101 126L97 124z"/>
<path style="fill:#956859; stroke:none;" d="M98 124L99 125L98 124M101 124L100 126L102 126L101 124z"/>
<path style="fill:#b5c1c1; stroke:none;" d="M118 124L118 127L119 127L118 124z"/>
<path style="fill:#956859; stroke:none;" d="M71.3333 125.667L71.6667 126.333L71.3333 125.667z"/>
<path style="fill:#6a959f; stroke:none;" d="M102 125L103 126L102 125M125.667 125.333L126.333 125.667L125.667 125.333z"/>
<path style="fill:#b29587; stroke:none;" d="M97 127L97 128L101 128L97 127M101 126L102 127L101 126z"/>
<path style="fill:#6a959f; stroke:none;" d="M129 126L130 127L129 126M29 127L30 129L31 129L32 127L29 127M134 127L135 128L134 127M22.3333 128.667L22.6667 129.333L22.3333 128.667z"/>
<path style="fill:#956859; stroke:none;" d="M29 128L30 129L29 128z"/>
<path style="fill:#b29587; stroke:none;" d="M96 128L97 129L96 128z"/>
<path style="fill:#6a959f; stroke:none;" d="M136 128L137 129L136 128M16 129L16 130L19 130L16 129z"/>
<path style="fill:#956859; stroke:none;" d="M19 129L19 130L22 130L19 129M117 129L117 134L118 134L117 129z"/>
<path style="fill:#6a959f; stroke:none;" d="M137 129L139 131L139 129L137 129M10 130L10 131L13 131L10 130z"/>
<path style="fill:#b29587; stroke:none;" d="M101 130L102 131L101 130z"/>
<path style="fill:#956859; stroke:none;" d="M111 130L112 131L111 130z"/>
<path style="fill:#6a959f; stroke:none;" d="M91 131L90 139L92 139L91 131M137 131L138 132L137 131M32 132L29 133L29 147L28 147L25 146L24 134C15.0347 135.139 0.132174 134.91 0 146L6 146L8 145L8 142L4 142C9.10267 137.985 14.3013 139.029 19 143L16 144L16 145L19 145L15 150L14 147L0 147L0 164L3 164L1 167L12 169L12 170L6 170L6 171C10.6327 171.919 27.9256 176.733 29 170L30 170L35 172L35 169L31 171L32 167L28 167L28 166L32 166L32 165L29 165L28 163L28 162L31 162L31 161L30 159L26 149L30 150L29 153L30 155L30 156L33 155L32 132z"/>
<path style="fill:#956859; stroke:none;" d="M89 132L89 135L90 135L89 132z"/>
<path style="fill:#b29587; stroke:none;" d="M90 132L91 133L90 132z"/>
<path style="fill:#956859; stroke:none;" d="M98 132L99 133L98 132z"/>
<path style="fill:#6a959f; stroke:none;" d="M138 132L139 133L138 132z"/>
<path style="fill:#956859; stroke:none;" d="M92 133L93 134L92 133M99 133L98 139L99 139L99 135L100 135L101 140L102 140L101 133L99 133z"/>
<path style="fill:#b29587; stroke:none;" d="M103 133L104 134L103 133M105 133L106 134L105 133z"/>
<path style="fill:#956859; stroke:none;" d="M39 134L41 139L39 142L40 143L44 142L39 134z"/>
<path style="fill:#b29587; stroke:none;" d="M103 136L106 139L106 135L103 136z"/>
<path style="fill:#b5c1c1; stroke:none;" d="M108 136L109 137L108 136M17 137L20 142L21 141L17 137z"/>
<path style="fill:#6a959f; stroke:none;" d="M105 137L106 138L105 137M127 137L127 140L132 140L132 139L127 137M39.3333 138.667L39.6667 139.333L39.3333 138.667z"/>
<path style="fill:#353a3d; stroke:none;" d="M40 138L41 139L40 138z"/>
<path style="fill:#b29587; stroke:none;" d="M120 138L121 139L120 138z"/>
<path style="fill:#b5c1c1; stroke:none;" d="M4 142L8 142L8 145L6 146L0 146C3.70501 149.317 9.49887 148.568 14 147L15 150C17.2614 148.347 20.4298 145.537 16 145L16 144L19 143C15.4286 138.712 7.96202 137.291 4 142z"/>
<path style="fill:#956859; stroke:none;" d="M25 139L26 140L25 139M90 139L90 141L92 139L90 139z"/>
<path style="fill:#6a959f; stroke:none;" d="M123.667 139.333L124.333 139.667L123.667 139.333M14 140L14 143L15 143L14 140z"/>
<path style="fill:#b29587; stroke:none;" d="M91 140L92 141L91 140z"/>
<path style="fill:#956859; stroke:none;" d="M102.333 140.667L102.667 141.333L102.333 140.667M105.667 140.333L106.333 140.667L105.667 140.333M110 140L110 143L111 143L110 140M25 141L26 142L25 141z"/>
<path style="fill:#353a3d; stroke:none;" d="M40 141L41 142L40 141z"/>
<path style="fill:#b5c1c1; stroke:none;" d="M90 141L90 142C92.791 144.588 94.7267 149.205 98.2994 150.802C105.966 154.228 101.106 144.286 99 142L90 141z"/>
<path style="fill:#b29587; stroke:none;" d="M98 141L99 142L98 141z"/>
<path style="fill:#956859; stroke:none;" d="M104 141C104.211 145.622 107.687 148.654 112 150L112 149L110 143L104 141M108 141L109 142L108 141z"/>
<path style="fill:#b5c1c1; stroke:none;" d="M137 141L138 142L137 141M5 142L6 143L5 142z"/>
<path style="fill:#6a959f; stroke:none;" d="M11 142L10 147L11 147L11 142z"/>
<path style="fill:#956859; stroke:none;" d="M32.3333 142.667L32.6667 143.333L32.3333 142.667z"/>
<path style="fill:#b29587; stroke:none;" d="M90 142L94 147L90 142z"/>
<path style="fill:#6a959f; stroke:none;" d="M96 142L97 143L96 142z"/>
<path style="fill:#b29587; stroke:none;" d="M97 142L95 143L95 144L97 142z"/>
<path style="fill:#6a959f; stroke:none;" d="M99 142L100 143L99 142z"/>
<path style="fill:#b5c1c1; stroke:none;" d="M19 143L21 146L19 143z"/>
<path style="fill:#b29587; stroke:none;" d="M100 143L101 144L100 143z"/>
<path style="fill:#956859; stroke:none;" d="M102 143L103 144L102 143z"/>
<path style="fill:#b5c1c1; stroke:none;" d="M126 143L127 144L126 143z"/>
<path style="fill:#956859; stroke:none;" d="M90 144L91 145L90 144z"/>
<path style="fill:#6a959f; stroke:none;" d="M101 144L102 145L101 144M105 144L106 145L105 144M14 145L15 146L14 145M71 145L72 146L71 145z"/>
<path style="fill:#956859; stroke:none;" d="M91 145L92 146L91 145z"/>
<path style="fill:#6a959f; stroke:none;" d="M102 145L103 146L102 145z"/>
<path style="fill:#353a3d; stroke:none;" d="M109 145L110 146L109 145z"/>
<path style="fill:#956859; stroke:none;" d="M116 145L116 149L117 149L116 145M28 146L29 147L28 146M92 146L93 147L92 146z"/>
<path style="fill:#b29587; stroke:none;" d="M103 146L104 147L103 146z"/>
<path style="fill:#b5c1c1; stroke:none;" d="M22 147L23 148L22 147z"/>
<path style="fill:#956859; stroke:none;" d="M93 147L94 148L93 147z"/>
<path style="fill:#b29587; stroke:none;" d="M96 147L97 148L96 147z"/>
<path style="fill:#956859; stroke:none;" d="M104 147L105 148L104 147z"/>
<path style="fill:#b5c1c1; stroke:none;" d="M0 148L1 149L0 148M13 148L14 149L13 148z"/>
<path style="fill:#6a959f; stroke:none;" d="M94 148L97 151L94 148z"/>
<path style="fill:#b29587; stroke:none;" d="M95 148L96 149L95 148z"/>
<path style="fill:#6a959f; stroke:none;" d="M104 148L105 149L104 148z"/>
<path style="fill:#b29587; stroke:none;" d="M123 148L124 149L123 148z"/>
<path style="fill:#b5c1c1; stroke:none;" d="M124.667 148.333L125.333 148.667L124.667 148.333M128 148L129 149L128 148M6.66667 149.333L7.33333 149.667L6.66667 149.333M9.66667 149.333L10.3333 149.667L9.66667 149.333z"/>
<path style="fill:#353a3d; stroke:none;" d="M26 149L30 157L30 150L26 149z"/>
<path style="fill:#6a959f; stroke:none;" d="M69 149L68 151L69 149z"/>
<path style="fill:#b5c1c1; stroke:none;" d="M70 149L71 150L70 149z"/>
<path style="fill:#6a959f; stroke:none;" d="M71 149L72 150L71 149z"/>
<path style="fill:#956859; stroke:none;" d="M72 149L73 150L72 149z"/>
<path style="fill:#6a959f; stroke:none;" d="M73 149L73 150L76 151L73 149z"/>
<path style="fill:#b29587; stroke:none;" d="M76 149L77 150L76 149z"/>
<path style="fill:#b5c1c1; stroke:none;" d="M77 149L78 150L77 149z"/>
<path style="fill:#b29587; stroke:none;" d="M96 149L97 150L96 149z"/>
<path style="fill:#956859; stroke:none;" d="M104 149L105 150L104 149M115 149L116 150L115 149z"/>
<path style="fill:#b5c1c1; stroke:none;" d="M122 149L123 150L122 149M12 150L13 151L12 150z"/>
<path style="fill:#956859; stroke:none;" d="M26 150L27 151L26 150M28 150L29 151L28 150z"/>
<path style="fill:#b29587; stroke:none;" d="M68 151L71 154L69 152L69 151L77 152L68 151z"/>
<path style="fill:#956859; stroke:none;" d="M76.6667 150.333L77.3333 150.667L76.6667 150.333z"/>
<path style="fill:#b29587; stroke:none;" d="M78 150L79 151L78 150z"/>
<path style="fill:#6a959f; stroke:none;" d="M79 150L80 151L79 150z"/>
<path style="fill:#b29587; stroke:none;" d="M103 150L104 151L103 150z"/>
<path style="fill:#6a959f; stroke:none;" d="M111 150L112 151L111 150z"/>
<path style="fill:#956859; stroke:none;" d="M116 150L116 153L117 153L116 150M29 151L30 152L29 151z"/>
<path style="fill:#b5c1c1; stroke:none;" d="M69 151L69 152L71 154L73 153C75.8585 156.267 79.7289 154.83 81 151L69 151z"/>
<path style="fill:#b29587; stroke:none;" d="M98 151L99 152L98 151z"/>
<path style="fill:#6a959f; stroke:none;" d="M102 151L103 152L102 151M68 152L69 153L68 152M81 152L82 153L81 152z"/>
<path style="fill:#956859; stroke:none;" d="M30 153L30 155L32 155L30 153z"/>
<path style="fill:#6a959f; stroke:none;" d="M69 153L70 154L69 153z"/>
<path style="fill:#b29587; stroke:none;" d="M72.3333 153.667L72.6667 154.333L72.3333 153.667M81 153L82 154L81 153z"/>
<path style="fill:#956859; stroke:none;" d="M115 153L116 154L115 153M71 154L72 155L71 154z"/>
<path style="fill:#6a959f; stroke:none;" d="M80 154L81 155L80 154z"/>
<path style="fill:#b29587; stroke:none;" d="M126 154L127 155L126 154z"/>
<path style="fill:#956859; stroke:none;" d="M27 155L28 156L27 155M28 157L28 158L30 159L34 155L28 157M74.6667 155.333L75.3333 155.667L74.6667 155.333M114 155L115 156L114 155M113 156L114 157L113 156M115 156L116 157L115 156z"/>
<path style="fill:#b29587; stroke:none;" d="M124 156L125 157L124 156z"/>
<path style="fill:#6a959f; stroke:none;" d="M29 157L30 158L29 157z"/>
<path style="fill:#956859; stroke:none;" d="M110 157L103 161L103 162L112 162L110 157M114 157L115 158L114 157z"/>
<path style="fill:#353a3d; stroke:none;" d="M28 158L29 159L28 158z"/>
<path style="fill:#956859; stroke:none;" d="M33 158L34 159L33 158z"/>
<path style="fill:#353a3d; stroke:none;" d="M27 161L28 162L27 161z"/>
<path style="fill:#956859; stroke:none;" d="M88 165L74 167C69.3186 162.203 55.2666 166.838 49 166L50 168C43.0374 164.51 39.5777 165.163 39 173L52 173L61 171L62 171L69 169L69 173L70 173C71.4484 170.586 74.8906 168.438 74 172L77 170L77 172L80 170L79 172L80 171C84.1278 173.891 88.6964 173.297 93 171L96 172L93 169L96 165L97 165L99 167L98 164L102 161L88 165z"/>
<path style="fill:#353a3d; stroke:none;" d="M28 162L29 163L28 162z"/>
<path style="fill:#956859; stroke:none;" d="M29 162L30 163L29 162M38 162L39 163L38 162M95 162L96 163L95 162M102 162L103 163L102 162M107.667 162.333L108.333 162.667L107.667 162.333z"/>
<path style="fill:#353a3d; stroke:none;" d="M1 163L0 173L12 173L12 171L6 171L6 170L12 170L12 169L1 167L3 164L1 163M27 163L28 164L27 163z"/>
<path style="fill:#956859; stroke:none;" d="M30 163L31 164L30 163z"/>
<path style="fill:#6a959f; stroke:none;" d="M31 163L32 164L31 163z"/>
<path style="fill:#956859; stroke:none;" d="M38 165L38 166L43 164L38 165z"/>
<path style="fill:#353a3d; stroke:none;" d="M135.333 163.667L135.667 164.333L135.333 163.667z"/>
<path style="fill:#6a959f; stroke:none;" d="M34 164L35 165L34 164z"/>
<path style="fill:#956859; stroke:none;" d="M56 164L57 165L56 164M69.3333 164.667L69.6667 165.333L69.3333 164.667z"/>
<path style="fill:#353a3d; stroke:none;" d="M98 164L99 165L98 164M138 164L139 165L138 164M3 165L4 166L3 165M5 165L6 166L5 165z"/>
<path style="fill:#956859; stroke:none;" d="M33 165L33 167L35 165L33 165M65.6667 165.333L66.3333 165.667L65.6667 165.333M102 165L103 166L102 165z"/>
<path style="fill:#353a3d; stroke:none;" d="M7 166L9 168L7 166M28 166L29 168L30 168L31 166L28 166z"/>
<path style="fill:#956859; stroke:none;" d="M31 166L32 167L31 166z"/>
<path style="fill:#6a959f; stroke:none;" d="M35 166L36 167L35 166z"/>
<path style="fill:#353a3d; stroke:none;" d="M59 166L60 167L59 166M93 166L94 167L93 166z"/>
<path style="fill:#956859; stroke:none;" d="M100 166L101 167L100 166z"/>
<path style="fill:#b5c1c1; stroke:none;" d="M118 166L119 167L118 166z"/>
<path style="fill:#956859; stroke:none;" d="M32.3333 167.667L32.6667 168.333L32.3333 167.667M36 167L37 168L36 167z"/>
<path style="fill:#353a3d; stroke:none;" d="M41 167L42 168L41 167z"/>
<path style="fill:#6a959f; stroke:none;" d="M67 167L68 168L67 167M4 168L5 169L4 168z"/>
<path style="fill:#353a3d; stroke:none;" d="M55 168L56 169L55 168M57 168L57 169L60 170L57 168z"/>
<path style="fill:#6a959f; stroke:none;" d="M65 168L66 169L65 168M72 168L71 170L72 168M79 168L80 169L79 168z"/>
<path style="fill:#956859; stroke:none;" d="M95 168L96 169L95 168M34 170L34 171L37 172L37 169L34 170z"/>
<path style="fill:#353a3d; stroke:none;" d="M41 169L42 170L41 169M62 169L63 170L62 169z"/>
<path style="fill:#6a959f; stroke:none;" d="M67 169L64 172L64 173L69 173L69 169L67 169z"/>
<path style="fill:#353a3d; stroke:none;" d="M29 170C29.6544 173.054 31.0066 172.936 34 173L34 172L29 170z"/>
<path style="fill:#6a959f; stroke:none;" d="M36 170L37 171L36 170M64 170L63 172L64 170M70 173L75 173L75 170L70 173M76 170C76.6776 173.162 79.3201 173.916 81 171L79 172L80 170L76 170z"/>
<path style="fill:#353a3d; stroke:none;" d="M137.667 170.333L138.333 170.667L137.667 170.333z"/>
<path style="fill:#6a959f; stroke:none;" d="M45 172L45 173L52 173L52 171L45 172M57 171L58 172L57 171M61.3333 171.667L61.6667 172.333L61.3333 171.667M88 171L89 172L88 171M90 171L91 172L90 171M92 171L91 173L93 173L92 171z"/>
<path style="fill:#353a3d; stroke:none;" d="M27 172L28 173L27 172z"/>
<path style="fill:#956859; stroke:none;" d="M34 172L35 173L34 172M37 172L38 173L37 172z"/>
<path style="fill:#6a959f; stroke:none;" d="M43 172L44 173L43 172M53.6667 172.333L54.3333 172.667L53.6667 172.333M56 172L57 173L56 172z"/>
<path style="fill:#956859; stroke:none;" d="M66 172L67 173L66 172z"/>
<path style="fill:#b29587; stroke:none;" d="M75 172L76 173L75 172z"/>
<path style="fill:#353a3d; stroke:none;" d="M135.667 172.333L136.333 172.667L135.667 172.333M138 172L139 173L138 172z"/>
</svg>
